<?xml version="1.0" encoding="utf-8"?>
<!-- Generator: Adobe Illustrator 23.0.3, SVG Export Plug-In . SVG Version: 6.00 Build 0)  -->
<svg version="1.1" id="Layer_1" xmlns="http://www.w3.org/2000/svg" xmlns:xlink="http://www.w3.org/1999/xlink" x="0px" y="0px"
	 viewBox="0 0 350 247" style="enable-background:new 0 0 350 247;" xml:space="preserve">
<style type="text/css">
	.st0{fill:#4D317D;}
</style>
<g>
	<path class="st0" d="M138.2,0H69.1v33h36.4v145.8c0,20.2-16.4,36.6-36.6,36.6S32.3,199,32.3,178.8h-0.1v-32.2H0v32.2h0
		C0,217,30.9,247,69.1,247h0c1.2,0,2.5,0,3.7-0.1c0.8,0,1.5-0.1,2.2-0.2c0.4,0,0.8-0.1,1.3-0.1c35.2-3.7,61.9-33.4,61.9-68.7V0z"/>
	<path class="st0" d="M317,0v178.8c0,20.3-15.8,36.5-36.1,36.5s-36.2-16.1-36.2-36.5V0h-32.9v178.8h-0.4c0.2,20-15.9,36.3-35.8,36.5
		c-0.2,0-0.3,0-0.5,0c-11.8,0-22.9-5.6-29.9-15.1c-3.2,10.9-8.7,21-16.2,29.6c29.3,25.4,73.6,22.3,99-6.9c0,0,0,0,0,0
		c13.3,15.4,32.6,24.3,52.9,24.1c38.2,0,69.1-30,69.1-68.2V0H317z"/>
</g>
</svg>
