<?xml version="1.0" encoding="utf-8"?>
<!-- Generator: Adobe Illustrator 23.1.0, SVG Export Plug-In . SVG Version: 6.00 Build 0)  -->
<svg version="1.1" id="Layer_1" xmlns="http://www.w3.org/2000/svg" xmlns:xlink="http://www.w3.org/1999/xlink" x="0px" y="0px"
	 viewBox="0 0 92.1 70" style="enable-background:new 0 0 92.1 70;" xml:space="preserve">
<style type="text/css">
	.st0{fill:#FFFFFF;}
</style>
<path class="st0" d="M36.8,48.7V3.9h-8.3h-9.2v8.3h9.2v36.8c0,5.1-4,9.2-9.2,9.2c-5.1,0-9.3-4.1-9.3-9.2h0v-8.1H2v8.1
	c0,9.6,7.8,17.2,17.4,17.2c0,0,0,0,0,0c0.3,0,0.6,0,0.9,0c0.2,0,0.4,0,0.6,0c0.1,0,0.2,0,0.3,0C30,65.1,36.8,57.7,36.8,48.7
	L36.8,48.7z"/>
<path class="st0" d="M81.8,3.9v45.1c0,5.1-4,9.2-9.1,9.2c-5.1,0-9.1-4.1-9.1-9.2V3.9h-8.3v45.1h-0.1c0,5.1-4,9.2-9.2,9.2
	c-2.5,0-4.7-0.9-6.3-2.5c-0.9,2.6-2.3,5-4.1,7.1c2.9,2.1,6.5,3.4,10.4,3.4c5.4,0,10.1-2.3,13.3-6.1c3.2,3.7,8,6.1,13.3,6.1
	c9.6,0,17.4-7.6,17.4-17.2V3.9H81.8z"/>
</svg>
