<?xml version="1.0" encoding="utf-8"?>
<!-- Generator: Adobe Illustrator 23.0.3, SVG Export Plug-In . SVG Version: 6.00 Build 0)  -->
<svg version="1.1" id="Layer_1" xmlns="http://www.w3.org/2000/svg" xmlns:xlink="http://www.w3.org/1999/xlink" x="0px" y="0px"
	 viewBox="0 0 100 72" style="enable-background:new 0 0 100 72;" xml:space="preserve">
<g>
	<path d="M39.9,50.8V2h-9H21v9h10v40c0,5.6-4.4,10-10,10s-10.1-4.4-10.1-10h0v-8.8H2V51c0,10.5,8.5,18.7,19,18.7c0,0,0,0,0,0
		c0.3,0,0.7,0,1,0c0.2,0,0.4,0,0.6,0c0.1,0,0.2,0,0.3,0C32.5,68.7,39.9,60.6,39.9,50.8L39.9,50.8z"/>
	<path d="M89,2v49c0,5.6-4.3,10-9.9,10c-5.6,0-9.9-4.4-9.9-10V2h-9v49H60c0,5.6-4.4,10-10,10c-3.4,0-6.4-1.6-8.2-4.1
		c-0.9,3-2.4,5.8-4.4,8.1c3.4,2.9,7.8,4.7,12.6,4.7c5.8,0,11-2.6,14.5-6.6c3.5,4.1,8.7,6.6,14.5,6.6c10.5,0,19-8.2,19-18.7V2H89z"/>
</g>
</svg>
