<?xml version="1.0" encoding="utf-8"?>
<!-- Generator: Adobe Illustrator 24.0.0, SVG Export Plug-In . SVG Version: 6.00 Build 0)  -->
<svg version="1.1" id="Layer_1" xmlns="http://www.w3.org/2000/svg" xmlns:xlink="http://www.w3.org/1999/xlink" x="0px" y="0px"
	 viewBox="0 0 792 1224" style="enable-background:new 0 0 792 1224;" xml:space="preserve">
<style type="text/css">
	.st0{fill:#FFFFFF;}
	.st1{fill:none;stroke:#000000;stroke-width:19;stroke-miterlimit:10;}
	.st2{fill:none;stroke:#000000;stroke-width:19.3942;stroke-miterlimit:10;}
	.st3{fill:none;stroke:#000000;stroke-width:3.9297;stroke-linecap:round;stroke-linejoin:round;stroke-miterlimit:10;}
	.st4{fill:none;stroke:#FFFFFF;stroke-width:27.5082;stroke-linecap:round;stroke-linejoin:round;stroke-miterlimit:10;}
	.st5{fill:none;stroke:#000000;stroke-width:21.9743;stroke-linecap:round;stroke-linejoin:round;stroke-miterlimit:10;}
	.st6{stroke:#000000;stroke-width:5.0494;stroke-miterlimit:10;}
	.st7{enable-background:new    ;}
	.st8{fill:#231F20;}
	.st9{fill:none;stroke:#000000;stroke-width:5;stroke-miterlimit:10;}
	.st10{stroke:#000000;stroke-width:2;stroke-miterlimit:10;}
	.st11{stroke:#000000;stroke-miterlimit:10;}
</style>
<rect x="2" y="-0.6" class="st0" width="792" height="1224"/>
<path class="st1" d="M750.8,696.1"/>
<polyline class="st2" points="757.2,676.8 757.2,1197.6 34.8,1197.6 34.8,30.9 757.2,30.9 757.2,593.6 "/>
<path class="st0" d="M198.5,422.4c0,0-55.4,1.6-109.3-34.9c0,0,64.9-69.7,114-88.7c0,0,14.8-93.5,50.5-282.9
	c0,0,81.4,88.9,130.1,158.9c0,0,9.6,11.2,18.6,0s90-120.6,99.7-131.8c0,0,56.3,151.8,86.2,265.3c0,0,9.1,1.9,87.5,63.2
	c0,0-20.2,46.3-77.7,48.5L198.5,422.4z"/>
<g>
	<path d="M209,410c0,0-47.9-3.8-97-37c0,0,56.6-58.4,101.4-75.7c0,0,13.5-85.3,46.1-258.1c0,0,74.3,81.1,118.8,145
		c0,0,8.8,10.2,17,0s82.1-110.1,91-120.3c0,0,51.4,138.6,78.7,242.1c0,0,11.7,4.5,83.2,60.4c0,0-21.7,39.5-74.2,41.5L209,410z"/>
	<circle cx="306.7" cy="395.5" r="97.4"/>
	<circle cx="481.1" cy="392.9" r="97.4"/>
	<g>
		<circle class="st0" cx="307.3" cy="395.6" r="77.1"/>
		<circle cx="307.3" cy="395.6" r="20"/>
	</g>
	<g>
		<circle class="st0" cx="480.8" cy="392.7" r="77.2"/>
		<circle cx="480.8" cy="392.7" r="24.2"/>
		<circle cx="306.5" cy="399.9" r="24.2"/>
	</g>
	<path d="M383.5,455c0,0,10-12.6,26.1-0.3c16,12.3-14-23.2-14-23.2L383.5,455z"/>
</g>
<ellipse transform="matrix(0.515 -0.8572 0.8572 0.515 -221.2067 668.2856)" cx="480" cy="529.6" rx="11.1" ry="76.6"/>
<ellipse transform="matrix(0.8572 -0.515 0.515 0.8572 -230.0234 235.9978)" cx="310.5" cy="532.8" rx="76.6" ry="11.1"/>
<path d="M383.4,567.1c0,0-11-9.8-2-23.4c9.1-13.7,19.5-5.2,26,0s11,13,5.9,21.4c-5.2,8.5,0.6,16.3,15,26c0,0-14.4,38.3-18.9,59.8
	c0,0-11.9,1.8-17.8,3.1c0,0-4.5-36.4-20.1-52.6c0,0,3.5-6.4,13.3-14.8C394.5,578.2,379.5,565.8,383.4,567.1z"/>
<path d="M339.2,567.8c0,0,29.9,29.2,44.2,76.7l-0.6,9.1l-37.7,12.3l3.3-47.4l-20.8-2C327.5,616.5,326.9,597,339.2,567.8z"/>
<path d="M189.8,612c0,0,24.7-4.5,52.6-16.9s59.8-34.4,79.3-37.7c19.5-3.3,13.6,3.3,5.2,27.9s-7.1,38.3-7.1,38.3l20.1,1.3l-2,40.9
	L271,720.5c0,0,10.4-45.5,16.3-68.9s5.9-28.6,2-46.8s-50,74.1-55.9,97.5c-5.9,23.4-12.4,57.2-53.3,55.9S76.7,723.7,189.8,612z"/>
<path d="M423.7,653.5l37.7,13.7c0,0-2.6-22.7-17.5-37c0,0,2-17.5,16.3-27.3c0,0,1.3-17.5-16.3-33.8c0,0-18.2,42.9-27.9,83.2
	L423.7,653.5z"/>
<path d="M531.6,702.9c0,0-3.3-13-12.3-30.5c-9.1-17.5-22.1-40.3-24-66.9s77.3,87.1,90.3,114.4c13,27.3,65.3,39.7,84.8,33.9
	c19.5-5.8,10.1-96.9-52.9-131.3s-81.2-41.6-105.3-53.3c-24-11.7-53.9-24-65-18.2c-11,5.8-2,12.3-2,12.3s16.8,6.5,23.4,44.2
	c0,0-13.6,6.5-16.3,22.7c0,0,18.2,18.8,19.5,39.6L531.6,702.9z"/>
<path class="st0" d="M746.4,579.2c3-5.6,6.9-18.4,2.1-42.9c0,0-0.3-14.1-27.3-18.9s-20.6,18.5-19.3,25.8c1.3,7.3,1.9,23.2,1,27.5
	c0,0-5.7-13.1-10.2-22s-8.4-42.7-47.4-47.2c-39-4.5-28.3,28.9-18.2,42.8c4.7,6.5,12.8,18,20.1,28.6"/>
<path class="st0" d="M737.1,697.2c6.1,1.8,19.4,3.1,42.4-6.5c0,0,13.7-3.1,13-30.5s-22.3-16.5-29.2-13.7c-6.9,2.7-22.3,6.5-26.8,6.5
	c0,0,11.7-8.2,19.6-14.4s40.1-16.8,36.7-55.9c-3.4-39.1-34-22-45.6-9.3c-5.4,5.9-15.1,16.1-24,25.4"/>
<path d="M570,621.3c0,0,16.4,13.3,21.2,43.8s2.5,67,51.5,78.6c48.9,11.6,79.4-7.3,91.3-55.7l0.4-1.4c0,0,10.6,7.7,38.3-3.9
	c0,0,11.3-2.5,10.7-25.2s-18.4-13.6-24-11.3s-18.4,5.4-22,5.4c0,0,9.6-6.8,16.1-11.9c6.5-5.1,33.1-13.8,30.3-46.1
	c-2.8-32.2-28-18.1-37.6-7.6s-35.6,37.6-35.6,37.6s31.7-45.2,31.7-61.6s-5.7-37-17.5-39.9c-11.9-2.8-21.5,7.1-29.4,28.5
	c-7.9,21.5-12.7,38.5-22.9,58.5c0,0-1.7-6.2-1.1-14.7c0.6-8.5,1.1-7.6,0-11c0,0,11-20.9,10.2-35.3c-0.8-14.4-3.7-28.5-24.3-26.6
	c-20.6,2-24.6,30.8-26,57.1c0,0-1.1,15.8-1.1,18.9c0,0-7.1,4.5-9.6,28l-2.3-2.3c0,0-3.7-29.7-28.8-35.6
	c-25.2-5.9-26.6,4.2-27.7,11.3C560.4,606,566.6,617.9,570,621.3z"/>
<path class="st0" d="M565.9,602.1c0,0-0.6-12.2,9-11.9c9.6,0.3,21.8,4.5,32.2,20.9c10.5,16.4,13.8,33.4,13.8,33.4l4.2,4v-8.8
	c0,0,4,6.2,17.5,9.6s22.3,18.1,27.4,37.3c0,0,2,4,2.5,0.6c0.6-3.4-1.1-20.1-10.5-27.7c0,0,25.2,4.2,39.3,18.9c0,0,1.1,3.1,2.8,3.1
	s2.3-0.6,1.1-2.8s-5.1-12.4-22.6-18.9c-17.5-6.5-24-6.5-24-6.5s-10.2-9.9-32.5-19.5c0,0-5.7-2.8,7.1-32.2c0,0,2-5.7,2-13.8
	c0-8.2,0.8-33.6,12.4-50.9s26.9-2.5,26,13.3c-0.8,15.8-2,27.1-7.9,34.5c0,0-3.4,12.2-2.8,22c0,0,0.8,0.8,1.4-0.6
	c0.6-1.4,1.1-4.5,1.1-4.5s1.4,12.4,3.1,15.5c0,0-14.7-2-22.3,5.4c0,0-0.3,2,5.1,1.7s28.5-6.8,55.1,10.5c26.6,17.3,26,24.3,26,29.4
	s4.5-4.8,4.5-7.1s2.8-2.8,7.9-2.8s25.4-5.7,25.4-5.7s8.2-5.1,9.6,8.8c1.4,13.8-8.2,21.8-20.6,23.5s-22,7.6-26.6-7.6
	c0,0-0.8-4.2-2.3,5.9c-1.4,10.2-21.8,73.2-79.2,57.7c0,0,15.5-12.4,10.7-14.7c-2-0.9-17.9,16.3-39.6,4.5
	c-15-8.2-25.4-25.7-26.3-56.3s-26.6-55.7-26.6-55.7S566.4,608.9,565.9,602.1z"/>
<path class="st0" d="M674.7,618.5c0,0,16.4,0.6,26,5.9c0,0,32.2-37,34.5-57.7s-9.3-34.8-16.7-35.1c-7.3-0.3-16.7,11.9-28.5,45.2
	S674.7,618.5,674.7,618.5z"/>
<path class="st0" d="M712,631.5c0,0,12.4,7.3,19.8,17.5c0,0,27.7-17.5,42.4-34.5c14.7-17,0.6-34.5-7.1-33.4
	c-7.6,1.1-20.9,11-39.3,29.7C709.5,629.5,710,629.5,712,631.5z"/>
<g>
	<path class="st0" d="M78.9,604c-5.3-5.1-10.4-10.6-14.3-15.8c-14.8-19.9-39.1-17-51.9-1.4c-15.4,18.9,4.5,36.4,19.3,49.1
		c14.8,12.7,31.1,20.3,31.1,20.3s-15-4.4-28.8-5.6c-13-1.1-28.4,3.8-21.5,28.9c6.9,25.1,49.4,26.4,70,21.6c0,0,1.1,2.8,3.2,7.2"/>
	<path d="M194,630.6c0,0-13.7-18.4-16.3-32.7c-2.6-14.3-1.2-51.6-14.3-63.3c-13.1-11.7-34.1-14.9-39.1,2.9
		c-5,17.8,3.2,44.6,13.7,80.2c0,0-21.9-37.9-38.2-81.3s-48.7,1.8-38.8,30s27.1,48.1,46.7,69.7c0,0-27.1-19.2-39.7-36.2
		s-33.2-19.7-44-6.4c-13.1,16,10.2,33.2,22.7,44c12.5,10.8,32.7,22.5,32.7,22.5s-28.3-0.6-39.1-2.9c-10.8-2.3-22.2-0.9-16.3,20.4
		c5.8,21.3,42,22.5,59.5,18.4c0,0,21.3,53.6,56.6,54.8s72.6-16.6,80.2-61.8c0,0,2-10.2,1.8-19.5c0,0,14.3-14.6,24.8-33.5
		c10.5-19,0.6-24.2-8.8-26.2C228.7,607.6,200.4,612.2,194,630.6z"/>
	<path class="st0" d="M86.4,672.6c0,0,21.1-34.8,60.8-40.4c0,0-15.5-40.4-18.8-86.5c0,0-0.8-11.3,11.4-14.7
		c10.2-2.9,33.5,14.2,28.8,53.5c0,0-2,15.7,11.4,32.9c13.4,17.2,9.1,26,7.9,27.4c-2,2.2-2.6,2.6-10.5,5.8c-7.6,3.1-5.3,7.9-16,9
		s-37.9,12.2-46.1,27.4c0,0-1.8,5,1.8,2.9c3.5-2,2-14.3,40.2-22.7c0,0-12.5,15.2-12.5,20.1c0,0,0.6,2.9,3.2-0.3
		c2.6-3.2,14.9-26,36.7-31.5c0,0-1.8,13.7-0.6,15.5s3.8,3.5,4.1-5s9.9-40.2,24.8-46.7c14.9-6.4,33.8-8.5,32.4,5.3
		c-1.5,13.7-24.5,36.7-28.3,38.8c0,0-3.2,46.3-17.8,53.9c-14.6,7.6-24.2,3.5-30.3-2c0,0-3.8-2.9,0.3,4.7c4.1,7.6,9.3,9.6,9.3,9.6
		s-46.1,30-78.7-17.2c0,0-8.2-12.5-11.9-28.3c0,0,0.3-2.3-1.8,2.3c-2,4.7-28,12.8-46.1-0.6c-18.1-13.4-7.3-22.2-7.3-22.2
		s0.9-6.4,40.2,1.2C73,665,87.3,668.5,86.4,672.6z"/>
	<path class="st0" d="M88.1,661.2c0,0,6.7-10.2,16.3-18.7c0,0-24.2-14.9-44.3-41.4c0,0-16-16.9-30.3-7.3s12.2,32.7,26.2,41.4
		C70.1,644,82.9,654.5,88.1,661.2z"/>
	<path class="st0" d="M115.8,634.1c0,0,11.1-4.4,20.4-5.3c0,0-29.2-55.7-40.2-85.7s-33.2-8.8-30,14.3
		C69.2,580.5,108.5,638.2,115.8,634.1z"/>
</g>
<path class="st3" d="M262.2,778.3c5.6,3,11.1,5.9,16.7,8.8"/>
<path class="st3" d="M475.4,992.1c3.3,5.2,6.5,10.5,9.8,15.7"/>
<path class="st3" d="M322.2,718.3c3.3,5.2,6.5,10.5,9.8,15.7"/>
<path class="st3" d="M528.5,930.5c5.2,3.3,10.5,6.5,15.7,9.8"/>
<path class="st3" d="M483.3,720.3c-2.6,4.6-5.2,9.2-7.9,13.8"/>
<path class="st3" d="M542.2,779.3c-4.6,2.6-9.2,5.2-13.8,7.9"/>
<path class="st4" d="M385,664.3c-27.5,3.7-53.5,11-77.7,25.4c-53.4,31.7-86,77.3-96.2,138.7c-9.2,55,3.9,105.1,36.7,149
	c26.9,36.1,63.4,60.4,107.7,70.9c64.4,15.2,122.6,2.4,173.9-40.1c32-26.6,52.5-60,63-100.2c10.8-41.7,8.1-81.9-7.8-121.9
	c-18-45.3-49.3-78.4-91.7-100.8c-25.1-13.3-52.4-21.1-81.4-20.9c-8.5,0.1-17,0-25.5,0"/>
<path class="st5" d="M394.1,673.7c-16.6,1.5-33,4.1-49,9.5c-33.5,11.3-61.4,30.3-84.1,57.5c-15.2,18.2-26.8,38.3-33.8,60.8
	c-22,70.4-3.5,145,52,195.6c26.6,24.3,58.4,39.9,93.6,45.4c56.2,8.9,106.9-5.4,151.1-42.1c29.4-24.4,49.5-55.6,59-91.7
	c15.2-57.5,5.4-112-30.4-160.5c-25.6-34.7-60.1-57.1-101.1-68.8c-18.1-5.2-37.2-6.8-56.3-5.7"/>
<path class="st3" d="M333,993.3c-2.6,4.6-5.2,9.2-7.9,13.8"/>
<path class="st3" d="M279.5,931.7c-4.6,2.6-9.2,5.2-13.8,7.9"/>
<g>
	<path class="st6" d="M174.6,1080c0.4,0.8,0.5,1.6,0.4,2.6s-0.4,2-1,3.1c-2,3.7-4,7.3-5.8,11c-1.9,3.7-3.9,7.2-6.3,10.6
		c-0.8,1-1.5,2.1-2.2,3s-1.3,2-2,3c-1.6,2.3-3.2,4.6-4.7,7c-1.5,2.3-2.9,4.8-4.3,7.3c-1.7,3.1-3.4,6.2-5,9.1c-1.7,2.9-3.4,5.9-5,9
		c-1,1.7-2,3.5-3,5.3s-1.9,3.5-2.8,5.3c-1,1.7-2,3.4-2.9,5.1c-0.9,1.7-2,3.4-3.1,5.1c-0.4,0.8-0.9,1.4-1.5,2.1s-1.2,1.3-1.8,1.8
		c-0.5,0.6-1.1,1-1.8,1.3s-1.3,0.4-2,0.4c-0.2,0-0.4,0-0.5-0.1s-0.4-0.1-0.5-0.1c-2.6,0-4.6-0.8-5.9-2.4s-2-4-2.1-7.1
		c-0.1-2.4-0.2-4.8-0.3-7.2c-0.1-2.4-0.2-4.8-0.2-7.2c-0.1-3.1,0-6.2,0.2-9.3c0.3-3.2,0.4-6.3,0.5-9.4c0.1-1.5,0.1-3,0.2-4.4
		c0.1-1.4,0.1-2.9,0.2-4.4c0-1.6,0-3.3,0.1-4.9s0.2-3.3,0.3-5c-0.3,0.4-0.6,0.9-0.8,1.3c-0.3,0.4-0.6,0.9-0.8,1.3
		c-1.6,2.3-3.2,4.6-4.7,7c-1.5,2.3-2.9,4.8-4.3,7.3c-1.6,3.1-3.3,6.2-5,9.1c-1.7,2.9-3.4,5.9-5.1,9c-1,1.7-2,3.5-2.9,5.3
		c-0.9,1.8-1.9,3.5-2.9,5.3c-1,1.7-2,3.4-2.9,5.1s-1.9,3.4-3,5.1c-0.5,0.8-1,1.4-1.5,2.1c-0.5,0.6-1.1,1.3-1.7,1.8s-1.2,1-1.9,1.3
		c-0.7,0.3-1.3,0.4-2,0.4c-0.2,0-0.3,0-0.4-0.1c-0.1,0-0.2-0.1-0.4-0.1c-5.2,0-8-3.2-8.3-9.5l-0.5-14.4c-0.1-3.1,0-6.2,0.2-9.3
		c0.3-3.2,0.4-6.3,0.5-9.4c0.1-1.5,0.1-3,0.2-4.4c0.1-1.4,0.2-2.9,0.3-4.4c-0.2-6,0.2-12.1,1.3-18.6c0.8-4.6,1.4-9.2,1.6-13.6
		c0.2-4.4,0.7-8.9,1.3-13.5c0.2-1.7,0.5-2.9,1-3.5c0.5-0.6,1.4-1.2,2.8-1.7c1.3-0.4,2.5-0.6,3.6-0.6c1.1,0.1,2,0.5,2.7,1.3
		c0.1,0.1,0.2,0.1,0.3,0.2c0.1,0,0.2,0.1,0.2,0.2c1.7,1.1,2.9,2.6,3.6,4.4s0.9,4.1,0.8,6.9c-0.5,5.8-1,11.6-1.6,17.3
		c-0.6,5.7-1.2,11.5-1.7,17.3c-0.2,3.1-0.4,6.1-0.4,9.1c0,3-0.1,6.3-0.1,9.8c1.7-3,3.3-5.7,4.8-8.3s2.9-5,4.4-7.4
		c1.4-2.6,2.9-5.2,4.5-7.7c1.6-2.5,3.2-5,4.8-7.5c2.7-4.1,5.2-8.3,7.6-12.5s4.6-8.6,6.7-13c1.1-2.2,2.5-3.8,4.3-4.8
		c0.2-1.6,0.5-2.6,1-3.2c0.5-0.6,1.4-1.2,2.8-1.7c1.3-0.4,2.4-0.6,3.5-0.6c1.1,0.1,1.9,0.5,2.7,1.3c0.1,0.1,0.2,0.1,0.3,0.2
		s0.2,0.1,0.3,0.2c1.6,1.1,2.8,2.6,3.5,4.4s1,4.1,0.9,6.9c-0.5,5.8-1,11.6-1.7,17.3c-0.6,5.7-1.2,11.5-1.7,17.3
		c-0.3,3.1-0.5,6.1-0.5,9.1c0,3-0.1,6.3-0.1,9.8c1.7-3,3.3-5.7,4.8-8.3s2.9-5,4.4-7.4c1.5-2.6,3-5.2,4.6-7.7c1.6-2.5,3.1-5,4.8-7.5
		c2.7-4.1,5.3-8.3,7.7-12.5c2.4-4.2,4.7-8.6,6.8-13c0.5-1.2,1.2-2.2,1.9-2.9c0.7-0.7,1.5-1.4,2.3-1.9c0.7-0.4,1.3-0.8,2-1.2
		c0.7-0.4,1.4-0.9,2.1-1.3c1.9,0.4,3.3,1.4,4.3,3c1,1.6,2,3.2,3,4.9L174.6,1080z"/>
	<path class="st6" d="M195.9,1071.1c1.1-0.8,2.3-1.4,3.4-1.8c1.1-0.4,2.2-0.5,3.1-0.3c1-0.7,1.9-1.4,2.6-2.1c0.7-0.6,1.4-1,1.9-1.1
		c1.2-0.2,2.4-0.2,3.6-0.1c1.2,0.1,2.3,0.5,3.1,1.3c1.4,1.3,2.8,2.7,4.1,4.1s2.8,2.7,4.1,4.1c0.2,0.2,0.4,0.5,0.6,0.7
		c0.1,0.3,0.3,0.5,0.4,0.8c1,1.9,1.9,3.9,2.7,5.8c0.9,1.9,1.7,3.9,2.4,6c1.2,3.1,1.8,6.5,1.7,10.1c-0.1,3.6-0.8,7.4-2,11.4
		c-1.9,5.6-4,11-6.3,16.3c-2.4,5.3-4.9,10.6-7.6,15.9c-1.7,3.4-3.7,6.7-5.8,9.8s-4.6,6.1-7.3,8.8c-3.2,3.3-6.4,5.8-9.6,7.4
		c-3.2,1.6-6.6,2.3-10.1,2.2c-1.2-0.1-2.3-0.3-3.2-0.8c-0.9-0.4-1.9-0.9-2.8-1.4c-1.4-0.8-2.7-1.8-3.9-2.8c-1.1-1.1-2.2-2.3-3.2-3.6
		c-1.4-2-2.6-4.2-3.4-6.7s-1.2-5.2-1.2-8.3c0.1-4.7,0.5-9.4,1.2-14s1.7-9.4,3.1-14.3c1.1-4.3,2.4-8.4,3.9-12.6
		c1.5-4.1,3.2-8.3,5.1-12.5c1.3-2.8,2.8-5.5,4.3-8.1c1.6-2.5,3.4-4.9,5.5-7.2c1.2-1.3,2.5-2.4,3.8-3.5c1.4-1.1,2.7-2,4.2-2.7
		c0.3-0.2,0.6-0.3,0.8-0.4c0.2-0.1,0.5-0.2,0.8-0.4L195.9,1071.1z M206.6,1116.2c1.4-2.8,2.5-5.5,3.4-8.2c0.9-2.7,1.8-5.3,2.7-7.7
		c0.2-0.8,0.3-1.4,0.4-1.8c0.1-0.4,0.2-0.8,0.2-1.1c0.6-2.4,0.7-4.6,0.3-6.5c-0.4-1.9-1.1-3.7-2.3-5.1c-1-1.3-2.4-1.7-4.2-1
		c-1,0.4-2,0.9-3,1.5c-1,0.6-2,1.2-2.9,2c-2.1,1.6-4,3.5-5.7,5.5c-1.7,2.1-3.1,4.3-4.3,6.9c-1.7,3.3-3.1,6.7-4.4,10
		c-1.2,3.3-2.4,6.7-3.6,10.1c-0.9,2.8-1.6,5.7-2.2,8.5c-0.5,2.8-1.1,5.7-1.8,8.5c-0.5,2.4-0.8,4.7-0.9,7c-0.1,2.3,0,4.5,0.3,6.7
		c-0.1,0.9,0.1,1.5,0.6,1.8c0.4,0.3,1.1,0.4,1.9,0.2c1-0.3,2.1-0.7,3.1-1.2s2-1.3,2.9-2.3c2.3-2.5,4.3-5.1,6.2-7.8s3.5-5.5,5.1-8.4
		c1.6-2.8,3-5.7,4.3-8.6c1.2-2.9,2.6-5.8,4-8.6L206.6,1116.2z"/>
	<path class="st6" d="M268.1,1160.8c-0.1,1.1-0.1,2.1-0.3,2.8c-0.1,0.8-0.3,1.4-0.5,2c-0.2,0.6-0.5,1.2-0.9,1.9
		c-0.4,0.7-0.8,1.4-1.4,2.3c-1,0.2-2,0.4-3,0.6c-1,0.2-1.9,0.2-2.8,0.1c-2.7-0.4-4.6-1.5-5.7-3.3c-1.1-1.8-1.7-4.3-1.7-7.4
		c0.1-3.8,0.4-7.6,0.9-11.5c0.4-3.8,1-7.7,1.8-11.7c0-0.2,0.1-0.4,0.2-0.7c0.3-3.1,0.6-6.2,1-9.3c0.4-3.1,0.7-6.3,1.1-9.6
		c-1.1-0.4-2.2-0.7-3.3-1.1c-1.1-0.4-2.3-0.7-3.5-1.1c-0.2,0.4-0.4,0.7-0.6,1.1c-0.2,0.3-0.3,0.7-0.4,0.9c-0.7,3.2-1.4,6.4-2.1,9.5
		s-1.4,6.3-2,9.4c-0.5,2.2-0.9,4.3-1.4,6.4c-0.4,2.1-0.9,4.2-1.4,6.4c-0.3,1.6-0.6,3.1-1,4.7c-0.4,1.6-0.6,3.1-0.7,4.6
		c-0.4,2.3-1.2,4.2-2.6,5.8c-1.4,1.5-3.4,2.1-6.1,1.8c-1.1-0.2-2.2-0.3-3.2-0.6c-1.1-0.2-2.2-0.4-3.2-0.7c-0.3-0.9-0.6-1.8-1-2.6
		s-0.6-1.8-0.6-2.7c-0.2-1.3-0.3-2.6-0.4-3.9c-0.1-1.3,0-2.8,0.4-4.3c0.7-3.1,1.3-6.1,1.8-9c0.6-2.9,1.2-5.9,1.9-8.9
		c1.3-5.8,2.7-11.6,4.1-17.3c1.4-5.7,2.9-11.4,4.5-17.2c1-3.3,1.9-6.5,2.9-9.7s1.9-6.4,2.7-9.7c0.2-1,0.5-1.9,0.7-2.8
		s0.3-1.8,0.2-2.8c0-0.7,0.1-1.4,0.4-2.2c0.3-0.8,0.6-1.6,1-2.3c0.1-0.4,0.4-0.7,0.8-1.1c0.4-0.3,0.7-0.5,1-0.5
		c0.8-0.1,1.6-0.2,2.4-0.4c0.8-0.2,1.6-0.4,2.4-0.6s1.5-0.2,2.3-0.1c0.7,0.1,1.4,0.4,2.1,0.9c0.3,0.2,0.7,0.3,1.1,0.4
		c0.5,0,0.9,0.1,1.3,0.1c4-0.2,7.9-0.3,11.7-0.4c3.9-0.2,7.8-0.3,11.7-0.4c1.6-0.1,3.1,0,4.6,0.2c1.5,0.2,2.7,1,3.6,2.5
		c0.5,1,1.1,2.1,1.7,3.1s1.1,2.1,1.5,3.2s0.8,2.3,1,3.6c0.2,1.3,0.3,2.7,0.2,4.1c-0.1,0.8-0.2,1.7-0.3,2.5c-0.1,0.9-0.1,1.7-0.3,2.5
		c-0.5,2.2-1.1,4.3-1.9,6.4c-0.8,2.1-1.6,4.3-2.5,6.4c-2.6,6.1-6.5,10.3-11.7,12.6c-0.3,0.2-0.6,0.3-0.9,0.4
		c-0.3,0.2-0.6,0.3-0.8,0.4c-0.6,1-1,2-1.1,3c-0.1,0.9-0.2,1.8-0.2,2.7c-0.1,3.3-0.4,6.6-1,9.8c-0.6,3.3-1.2,6.6-1.8,9.9
		c-0.7,3.5-1.2,7-1.7,10.4c-0.5,3.4-0.8,6.9-1.1,10.3L268.1,1160.8z M258.4,1085.1c-0.2,1.2-0.5,2.4-0.8,3.6s-0.8,2.4-1.2,3.6
		s-0.8,2.4-1.2,3.7c-0.4,1.3-0.6,2.6-0.7,3.9c1-0.2,1.9-0.3,2.8-0.6s1.6-0.3,2.3-0.2c1.5,0.4,3,0.3,4.5-0.3s3-1.1,4.5-1.4
		c0.7-0.2,1.3-0.5,1.9-1.1s1.2-1.3,1.7-2c0.7-1.5,1.4-3,2.1-4.4c0.8-1.4,1.3-3,1.6-4.6c-0.3-0.1-0.5-0.2-0.7-0.2
		c-0.1-0.1-0.3-0.1-0.5-0.1c-2.5,0.2-4.9,0.2-7.2,0.2c-2.4,0-4.7-0.3-7-0.9c-0.2-0.1-0.4,0-0.8,0.1c-0.3,0.2-0.7,0.3-1.1,0.4
		L258.4,1085.1z"/>
	<path class="st6" d="M340.3,1071.5c0.3-0.2,0.6-0.4,0.9-0.7c0.3-0.3,0.7-0.6,1.2-1c1.4,0.8,2.7,1.6,4.1,2.4s2.6,1.6,3.9,2.5
		c2,1.6,2.2,3.9,0.6,7c-0.5,0.6-0.9,1.2-1.3,1.7c-0.4,0.6-0.8,1.1-1.3,1.6c-2.1,2.5-4.2,4.9-6.3,7.3c-2.1,2.4-4.1,4.9-6.3,7.3
		c-3.6,4.2-7.1,8.3-10.4,12.5c-3.4,4.2-6.5,8.6-9.4,13.2c-0.4,0.7-0.9,1.3-1.4,2s-1,1.4-1.4,2.2c0.5,1,1.2,1.8,1.9,2.5
		c0.8,0.7,1.5,1.3,2.1,2c3.1,2.6,6,5.4,8.6,8.4c2.6,3,5.2,6.1,7.7,9.3c0.8,1,1.2,1.9,1.3,2.7c0.1,0.8-0.2,1.6-0.9,2.7
		c-0.8,1.3-1.7,2.2-2.6,2.8c-0.9,0.6-1.9,0.9-3.1,0.9c-0.5,0-0.9,0-1.4,0s-0.9,0-1.4,0.1c-3.2,0.2-5.5-0.9-7-3.5
		c-1.9-3-4-5.7-6.4-8.2c-2.3-2.5-4.7-4.9-7.2-7.3c-0.4-0.4-0.9-0.7-1.3-1.1c-0.5-0.3-0.9-0.7-1.4-1.1c-1,1.9-1.7,3.7-2.2,5.4
		s-0.9,3.5-1.2,5.2c-0.7,2.6-1.1,5.1-1.3,7.5c-0.2,1.5-0.5,2.9-0.9,4.4c-0.5,1.4-0.9,2.9-1.5,4.4c-0.4,1-1,2-1.9,3
		c-0.9,0.9-1.9,1.5-2.8,1.6c-1.1,0.2-2.3,0.2-3.3,0.2c-1.1,0-2.2,0-3.4,0.1h-0.3c-0.5-0.2-1.1-0.7-1.7-1.4c-0.6-0.7-1.1-1.5-1.5-2.4
		s-0.7-1.8-0.9-2.8c-0.2-1-0.3-1.8-0.1-2.5c0.5-2.6,1.1-5.2,1.6-7.7c0.5-2.5,1-5.1,1.5-7.7c0.2-0.8,0.4-1.6,0.6-2.3
		c0.1-0.7,0.4-1.5,0.7-2.3c1.4-3.6,2.5-7.2,3.3-10.7s1.6-7.2,2.5-10.7c1.2-4.4,2.4-8.8,3.6-13.1c1.2-4.3,2.4-8.7,3.6-13.1
		c0.3-1,0.6-2.1,0.8-3.2c0.2-1.1,0.6-2.1,1-3.2c0.8-2.8,1.6-5.7,2.5-8.6s1.8-5.7,2.6-8.6c0.2-0.8,0.7-1.5,1.4-2s1.2-1.1,1.7-1.7
		c1.7-0.4,3.1-0.4,4.4,0c1.2,0.4,2.4,0.9,3.6,1.7c2.2,1.4,3.4,3.3,3.6,5.6c0.2,2.3-0.1,4.9-1.1,7.8c-1,3.1-1.9,6.3-2.7,9.4
		s-1.6,6.3-2.4,9.4c0,0.2,0,0.3,0.1,0.4s0.1,0.3,0.3,0.5c0.3-0.3,0.6-0.6,0.9-0.8s0.6-0.5,0.8-0.8c2.2-2.8,4.4-5.6,6.8-8.2
		c2.4-2.6,4.8-5.3,7.2-8c1-1.2,2.1-2.4,3.1-3.7c1.1-1.3,2-2.6,2.9-3.9c1.9-2.8,4-4.9,6.6-6.4L340.3,1071.5z"/>
	<path class="st6" d="M368.5,1171.2c-1.1-0.6-2-1.2-2.6-1.9c-0.7-0.7-1.1-1.4-1.4-2.3c-0.3-0.9-0.4-1.9-0.2-3.1
		c0.1-1.2,0.4-2.6,0.9-4.4c2.4-2.8,4.6-5.7,6.6-8.7c2-2.9,3.9-6,5.6-9.1c2.1-3.7,4.3-7.1,6.6-10.3c2.8-4,5.6-8,8.4-12
		c2.8-4,5.6-8,8.5-12c0.5-0.9,1.1-1.8,1.7-2.7s1.1-1.8,1.7-2.7c0.5-0.7,1-1.4,1.5-2.1c0.5-0.6,0.7-1.5,0.5-2.5
		c-0.1-0.4,0.1-0.9,0.5-1.5c0.4-0.6,0.9-1.2,1.4-1.7c0.6-1,1.2-1.9,1.9-2.8s1.3-1.8,2-2.8c0.3-0.4,0.5-0.7,0.7-1.1
		c0.2-0.4,0.4-0.9,0.7-1.4c-0.8,0-1.5,0-2-0.1c-0.6-0.1-1.2,0-1.8,0.1c-1.4,0.2-2.7,0.3-4,0.2c-1.3-0.1-2.6-0.1-4,0
		c-2.5,0.1-4.5-0.7-6.3-2.2c-0.2-0.2-0.5-0.4-0.7-0.7c-0.2-0.2-0.5-0.4-0.8-0.6c-1.8-1.3-2.9-3.2-3.3-5.4c-0.4-2.3-0.3-4.9,0.1-7.8
		c0.7-0.7,1.4-1.2,2.1-1.4c0.7-0.2,1.4-0.3,2-0.3c5.3,0,10.5-0.1,15.8-0.2c5.3-0.1,10.5,0.2,15.5,0.9c5.5,0.9,9.6,3.9,12.2,8.9
		c0.8,1.3,1,2.7,0.8,3.9c-0.3,1.3-1,2.8-2.2,4.5c-3.5,4.7-7,9.4-10.4,14c-3.4,4.7-6.9,9.3-10.3,14c-1.3,1.7-2.5,3.4-3.7,5.2
		s-2.4,3.5-3.6,5.2c-2.2,3.1-4.3,6.2-6.4,9.2c-2.1,3-4.2,6.1-6.3,9.2c-0.6,1-1.2,1.9-1.9,2.8c-0.7,0.9-1.3,1.9-1.9,2.8
		c-0.2,0.3-0.3,0.6-0.4,0.9c-0.1,0.3-0.2,0.7-0.4,1.2c2.6,0.6,5.1,1.2,7.5,1.9c2.4,0.7,4.9,1,7.6,0.9h3.5c1.3,0,2.3,0.6,3.2,1.8
		c0.7,1,1.4,1.8,2.3,2.5s1.5,1.6,2,2.7c0.2,0.4,0.4,0.8,0.6,1.1s0.4,0.8,0.5,1.1c0.5,1.8,0.3,3.5-0.4,5.1c-0.8,1.6-2,2.8-3.9,3.6
		c-0.8,0.3-1.6,0.5-2.4,0.7s-1.5,0.2-2.3,0c-1.9-0.3-3.9-0.6-5.8-0.9c-2-0.3-3.9-0.7-5.8-1.2c-1.3-0.4-2.5-0.6-3.8-0.8
		s-2.6-0.1-4,0.2c-2.5,0.5-4.9,0.9-7.4,1.2s-5,0.8-7.6,1.6c-2.1,0.8-3.8,0.6-5.1-0.6c-0.3-0.2-0.6-0.3-0.9-0.5
		c-0.3-0.2-0.5-0.3-0.9-0.5L368.5,1171.2L368.5,1171.2z"/>
	<path class="st6" d="M459.7,1071.1c1.1-0.8,2.3-1.4,3.4-1.8c1.1-0.4,2.2-0.5,3.1-0.3c1-0.7,1.9-1.4,2.6-2.1c0.7-0.6,1.4-1,1.9-1.1
		c1.2-0.2,2.4-0.2,3.6-0.1c1.2,0.1,2.3,0.5,3.1,1.3c1.4,1.3,2.8,2.7,4.1,4.1c1.4,1.4,2.8,2.7,4.1,4.1c0.2,0.2,0.4,0.5,0.6,0.7
		s0.3,0.5,0.4,0.8c1,1.9,1.9,3.9,2.7,5.8c0.9,1.9,1.7,3.9,2.4,6c1.2,3.1,1.8,6.5,1.7,10.1c-0.1,3.6-0.8,7.4-2,11.4
		c-1.9,5.6-4,11-6.3,16.3c-2.4,5.3-4.9,10.6-7.6,15.9c-1.7,3.4-3.7,6.7-5.8,9.8c-2.2,3.1-4.6,6.1-7.3,8.8c-3.2,3.3-6.4,5.8-9.6,7.4
		c-3.2,1.6-6.6,2.3-10.1,2.2c-1.2-0.1-2.3-0.3-3.2-0.8c-0.9-0.4-1.9-0.9-2.8-1.4c-1.4-0.8-2.7-1.8-3.9-2.8c-1.1-1.1-2.2-2.3-3.2-3.6
		c-1.4-2-2.6-4.2-3.4-6.7s-1.2-5.2-1.2-8.3c0.1-4.7,0.5-9.4,1.2-14s1.7-9.4,3.1-14.3c1.1-4.3,2.4-8.4,3.9-12.6
		c1.5-4.1,3.2-8.3,5.1-12.5c1.3-2.8,2.8-5.5,4.3-8.1c1.6-2.5,3.4-4.9,5.5-7.2c1.2-1.3,2.5-2.4,3.8-3.5c1.4-1.1,2.7-2,4.2-2.7
		c0.3-0.2,0.6-0.3,0.8-0.4s0.5-0.2,0.8-0.4L459.7,1071.1z M470.4,1116.2c1.4-2.8,2.5-5.5,3.4-8.2c0.9-2.7,1.8-5.3,2.7-7.7
		c0.2-0.8,0.3-1.4,0.4-1.8c0.1-0.4,0.2-0.8,0.2-1.1c0.6-2.4,0.7-4.6,0.3-6.5c-0.4-1.9-1.1-3.7-2.3-5.1c-1-1.3-2.4-1.7-4.2-1
		c-1,0.4-2,0.9-3,1.5c-1,0.6-2,1.2-2.9,2c-2.1,1.6-4,3.5-5.7,5.5s-3.1,4.3-4.3,6.9c-1.7,3.3-3.1,6.7-4.4,10
		c-1.2,3.3-2.4,6.7-3.6,10.1c-0.9,2.8-1.6,5.7-2.2,8.5s-1.1,5.7-1.8,8.5c-0.5,2.4-0.8,4.7-0.9,7c-0.1,2.3,0,4.5,0.3,6.7
		c-0.1,0.9,0.1,1.5,0.6,1.8c0.5,0.3,1.1,0.4,1.9,0.2c1-0.3,2-0.7,3.1-1.2c1-0.5,2-1.3,2.9-2.3c2.3-2.5,4.3-5.1,6.2-7.8
		c1.8-2.7,3.5-5.5,5.1-8.4c1.6-2.8,3-5.7,4.3-8.6c1.2-2.9,2.6-5.8,4-8.6L470.4,1116.2z"/>
	<path class="st6" d="M538.2,1167.6c-0.1-0.9-0.3-1.7-0.5-2.3c-0.2-0.7-0.7-1.2-1.3-1.7c0.3-1.9,0.6-3.7,0.9-5.5
		c0.3-1.8,0.8-3.6,1.3-5.5c0.7-2.7,1.3-5.4,1.9-8.1c0.5-2.7,1-5.4,1.5-8.1c0.5-3.1,1.2-6.3,2-9.4c0.8-3.1,1.6-6.3,2.5-9.5
		c0.6-1.9,1.2-3.9,1.8-5.9c0.6-2,1.2-3.9,1.8-5.9c0.1-0.5,0.2-1,0.4-1.5c0.1-0.5,0.2-1,0.4-1.5c-0.5,0.1-0.9,0.3-1.2,0.6
		s-0.5,0.6-0.8,0.9c-1.1,1.3-2.3,2.5-3.5,3.7s-2.4,2.4-3.5,3.7c-0.9,0.9-2,1.4-3.2,1.6c-2.1,0.2-4,0.1-5.8-0.3
		c-1.8-0.4-3.3-1.3-4.7-2.6c-0.4-0.4-0.7-0.8-0.9-1.4c-0.2-0.6-0.5-1.1-0.6-1.7c-0.3-0.6-0.6-1.2-0.8-1.8c-0.3-0.6-0.5-1.3-0.8-1.8
		c-0.8-1.7-1.7-3.4-2.7-5c-0.9-1.6-1.8-3.3-2.7-5l-0.8,0.4c-1.4,5.4-2.9,10.9-4.4,16.3c-1.5,5.4-2.9,10.8-4,16.3
		c-1.1,4.9-2.3,9.8-3.6,14.8c-1.3,4.9-2.6,9.8-4,14.8c-0.2,1-0.5,1.9-0.9,2.8c-0.4,0.9-0.7,1.9-0.9,2.8c-0.2,0.7-0.5,1.3-1,1.9
		c-0.5,0.6-1,1.1-1.6,1.4s-1.2,0.7-1.9,0.8s-1.2,0.3-1.7,0.3c-0.8-0.1-1.7-0.1-2.5-0.2s-1.6-0.1-2.4-0.3c-0.8-0.2-1.6-0.4-2.2-0.9
		c-0.6-0.4-1.1-1.2-1.3-2.1c-0.1-0.4-0.2-0.7-0.3-1c-0.1-0.3-0.3-0.6-0.5-0.8c-0.6-0.6-0.9-1.3-0.9-2s0.1-1.5,0.4-2.3
		c0.2-0.9,0.5-1.8,0.8-2.7s0.6-1.8,1-2.7c0.8-3.1,1.7-6.2,2.6-9.2s1.8-6.1,2.7-9.2l0.5-2.7c1.2-6,2.6-11.9,4.2-17.8
		s3.2-11.8,4.7-17.8c1-3.7,2.1-7.3,3.4-10.9c1.2-3.6,2.4-7.3,3.6-10.9c0.4-1.3,1-2.5,1.9-3.6c0.8-1.3,1.9-2,3.2-2
		c1.2-0.1,2.4-0.1,3.5,0c1.2,0.1,2.2,0.5,3.2,1.2c0.7,0.6,1.4,1.1,2.2,1.4s1.6,0.8,2.5,1.2c0.9,0.5,1.6,1.2,2.2,1.9
		c0.5,0.8,0.8,1.7,0.9,2.9c0.1,1.6,0.5,3.2,1,4.6c0.6,1.4,1.2,2.8,2,4c0.8,1.3,1.6,2.7,2.4,4.1s1.5,2.8,2.4,4.2
		c0.1,0.2,0.2,0.5,0.3,0.8c0.1,0.3,0.2,0.6,0.4,1c0.5-0.4,0.8-0.7,1.1-0.8c0.3-0.2,0.5-0.4,0.8-0.6c1.1-1,2.2-2.1,3.2-3
		s2.2-1.9,3.4-2.9c1.7-1.5,3.3-3.2,4.8-5.3c1.3-1.9,2.8-3.6,4.4-5.1c1.6-1.5,3.3-2.9,5.2-4.2c0.7-0.4,1.4-0.8,2.1-1
		c0.8-0.2,1.5-0.4,2.2-0.6c4.1-0.7,7.5,0.3,10,3c0.7,0.7,1.1,1.4,1.3,2.2s0.2,1.8,0,2.9c-0.1,0.4-0.2,0.8-0.2,1.2
		c0,0.4-0.1,0.8-0.2,1.2c-0.8,3.1-1.7,6.1-2.5,9.1c-0.8,3-1.7,6-2.6,9.1c-1.1,3.5-2.2,7-3.3,10.4c-1.1,3.4-2.3,6.9-3.4,10.4
		c-1,3.3-1.9,6.5-2.5,9.7c-0.7,3.2-1.3,6.4-1.9,9.7c-0.5,2.2-0.9,4.3-1.4,6.4c-0.5,2.1-0.9,4.2-1.4,6.4c-0.5,2-1,4-1.4,6
		c-0.4,2-0.6,4-0.8,6c-0.1,0.8-0.3,1.6-0.5,2.4s-0.7,1.6-1.3,2.3c-1.5,1.9-3.2,2.7-5,2.6c-1-0.1-1.9-0.2-2.8-0.2s-1.8-0.2-2.7-0.3
		c-0.8-0.2-1.5-0.6-1.9-1.2c-0.4-0.7-0.7-1.4-0.8-2.2L538.2,1167.6z"/>
	<path class="st6" d="M585.1,1073.6c0.2-0.8,0.4-1.7,0.7-2.5c0.3-0.9,0.6-1.8,0.9-2.8c2.6-2.5,4.9-3.1,7.1-1.9
		c0.7,0.4,1.4,0.5,2.2,0.5c0.8,0,1.6-0.2,2.4-0.4c3.1-0.9,6-1.3,8.9-1.2c2.9,0.1,5.7,0.3,8.5,0.8c2.8,0.4,4.8,1.5,6.1,3.5
		s2.2,4.3,2.7,7.2c0.1,0.8,0.2,1.5,0.3,2.3s0.3,1.6,0.5,2.3c0.7,2.4,0.8,4.8,0.2,7.4c-0.6,2.5-1.6,5.1-3.1,7.7
		c-0.1,0.2-0.2,0.4-0.3,0.7c-0.1,0.2-0.2,0.4-0.3,0.7c-0.5,1-0.7,1.7-0.7,2.1c0,0.4,0.3,0.9,1,1.2c2.3,1.5,3.9,3.7,4.8,6.5
		c0,0.4,0.1,0.9,0.3,1.3s0.4,0.8,0.7,1.2c0.6,1,1.1,2.1,1.6,3.1s0.6,2.3,0.3,3.8c-0.1,0.4-0.1,0.9,0,1.3c0.2,0.4,0.3,0.8,0.4,1.2
		c1,4.8,0.8,9.7-0.4,14.6c-1.2,4.9-3.4,9.8-6.4,14.8c-1.7,2.7-3.5,5.2-5.5,7.5c-2,2.3-4,4.7-6,7c-0.3,0.4-0.7,0.7-1.1,0.9
		c-0.4,0.3-0.8,0.5-1.2,0.6c-1.7,0.8-3.3,1.4-4.9,2.1s-3.2,1.1-4.7,1.4c-2.5,0.4-4.8,0.9-7.1,1.7c-2.2,0.7-4.2,0.9-6,0.6
		c-1-0.2-1.9-0.2-2.9-0.2s-2,0-3-0.1c-0.5,0-0.9,0-1.4,0s-0.9-0.1-1.3-0.2c-0.8-0.4-1.6-0.6-2.4-0.8c-0.8-0.2-1.7-0.4-2.5-0.8
		c-0.7-0.4-1.5-0.7-2.3-0.8s-1.7-0.5-2.4-0.8c-1.4-0.7-2.4-1.6-3.1-2.8c-0.7-1.2-1-2.8-1.1-4.8c0.2-4,0.7-8.1,1.5-12.1
		c0.8-4,1.8-8.1,2.8-12.2c1-3.6,1.9-7.1,2.7-10.6c0.9-3.5,1.8-7,2.8-10.6c1.7-6.7,3.5-13.4,5.2-19.9c1.7-6.6,3.5-13.2,5.2-19.9
		L585.1,1073.6z M588.7,1113.7c-2.1,6.2-3.8,12.3-5.1,18.3c-1.3,6-2.8,12.1-4.4,18.2c0.4,0.2,0.7,0.3,0.9,0.4s0.4,0.2,0.6,0.2
		c2.7-0.2,5.4-0.3,8-0.4c2.7-0.2,5.4-0.5,8.1-1.1c1.6-0.4,3.2-1,4.7-1.8s3-2,4.4-3.5c2.1-2.2,3.9-4.4,5.5-6.9s3.3-4.8,5-7.2
		c0.1-0.1,0.1-0.2,0.1-0.3c1.3-2.4,1.9-4.4,1.8-6.2c-0.1-1.7-1.1-3.1-3-4.1c-2-1-4.2-1.8-6.4-2.1c-2.2-0.4-4.5-0.6-6.9-0.8
		c-1.1-0.1-2.3-0.1-3.5-0.1c-1.2,0-2.4,0-3.5-0.1c-1.1-0.1-2.3-0.3-3.3-0.6c-1.1-0.3-2.1-0.9-3.1-1.6L588.7,1113.7L588.7,1113.7z
		 M602.6,1092.3c1.7-0.8,3.3-1.9,4.8-3.2s2.7-3.2,3.5-5.5c-1.3-0.1-2.5-0.1-3.6-0.2s-2.2,0-3.3,0.1c-1.1,0.1-2.3,0.3-3.4,0.6
		s-2.4,0.6-3.8,1.1c-0.2,0.1-0.5,0.2-0.8,0.4c-0.3,0.2-0.5,0.4-0.8,0.7c-0.4,1.5-0.7,3-1.1,4.5c-0.4,1.5-0.6,3.2-0.8,4.9
		c1.7-0.6,3.4-1.1,4.9-1.6c1.5-0.4,3-1,4.5-1.8H602.6z"/>
	<path class="st6" d="M649.2,1168.8c-1.7,1-3.4,2-5.2,2.7c-1.8,0.8-3.6,1.4-5.5,2c-0.5-0.8-1.1-1.4-1.7-2c-0.6-0.6-1.4-0.9-2.5-1.1
		c-0.7-0.1-1.2-0.4-1.6-0.9s-0.9-1-1.3-1.3c2.2-15.7,5.3-31.4,9.2-46.9c3.9-15.6,8.4-31.3,13.5-47.1c0.7-0.4,1.3-0.7,2-1.1
		c0.7-0.3,1.3-0.8,2-1.3c1-0.8,2-1.4,3-1.6s2-0.4,3-0.5s2-0.1,2.9,0.1c0.9,0.1,1.8,0.2,2.6,0.4c2,0.4,3.4,1.4,4.2,3
		c0.8,1.6,0.8,3.5,0.2,5.9c-0.2,0.8-0.4,1.7-0.6,2.5c-0.2,0.9-0.5,1.7-0.8,2.5c-2.3,7.4-4.5,14.7-6.4,22c-1.9,7.3-3.7,14.6-5.4,22
		c-1.3,5.7-2.4,11.4-3.5,17.1c-1.1,5.7-2.1,11.3-3.2,17c-0.2,1.6-0.8,2.9-1.6,4c-0.8,1.1-1.9,2.1-3.1,2.8L649.2,1168.8z"/>
	<path class="st6" d="M704.3,1085c-0.3-0.2-0.7-0.2-1.1-0.2c-0.4,0-0.9,0-1.3-0.1c-0.7,1.6-1.4,3.7-2.2,6.3s-1.6,5.3-2.3,8
		s-1.4,5.3-2,7.7s-0.9,4.1-1,5.3h4.3c1.1,0,2.3,0,3.4-0.1c1.1,0,2.3-0.1,3.4-0.1c1.4,0.1,2.6,0.5,3.7,1.2c1.1,0.8,2,1.8,2.7,3
		c0.5,0.7,0.9,1.4,1.3,2.1c0.4,0.8,0.7,1.5,1,2.3c0.1,0.6,0.2,1.3,0.3,2c0.1,0.8,0.2,1.5,0.4,2.2c-0.6,0.8-1.2,1.4-1.8,2.1
		s-1.1,1.3-1.6,2c-1.6,0.8-3.1,1-4.5,0.8c-1.5-0.2-3-0.2-4.6-0.1c-1.6,0.1-3.1,0.3-4.8,0.7c-0.8,0.2-1.7,0.3-2.4,0.3
		c-0.8,0-1.6,0-2.4,0.1c-0.7,0.1-1.5,0.1-2.2,0.2s-1.6,0.1-2.5,0.2c-1.1,3.9-2.2,7.8-3.3,11.6c-1.1,3.8-2.2,7.6-3.3,11.5
		c0.5,0.2,0.9,0.3,1.2,0.5c0.3,0.2,0.6,0.3,1,0.3c1,0.1,1.9,0.1,2.8,0.1c0.9,0,1.9-0.1,2.8-0.1c2,0,4,0,5.9,0.1s4,0,6-0.2
		c1.4-0.2,2.6,0.1,3.5,0.6c1,0.6,1.9,1.4,2.7,2.5c0.5,0.8,1,1.6,1.5,2.5c0.5,0.8,1,1.8,1.5,2.8c0.2,0.7,0.3,1.4,0.2,2.3
		c-0.1,0.9-0.3,1.7-0.7,2.5c-0.4,0.8-0.8,1.6-1.4,2.2s-1.3,1.1-2,1.3c-0.7,0.2-1.4,0.4-2.1,0.6s-1.4,0.2-1.8,0
		c-2.7-0.4-5.5-0.5-8.3-0.3c-2.8,0.2-5.7,0.3-8.7,0.5c-2.7,0.2-5.2,0-7.6-0.3c-2.4-0.4-4.7-1-7-2c-0.7-0.3-1.3-0.6-1.8-1
		c-0.5-0.4-1-1-1.3-1.9c-0.2-0.7-0.4-1.3-0.7-1.7s-0.6-1-0.9-1.6c-1-1.9-1.4-4.3-1.4-7c0-2.8,0.5-5.5,1.4-8.3c0.5-1,0.9-2.1,1.2-3.2
		s0.6-2.2,0.8-3.2c1.4-6.1,2.9-12.2,4.7-18.3c1.7-6.1,3.5-12.2,5.2-18.3c1.2-4.7,2.4-9.3,3.7-13.9c1.3-4.6,2.5-9.2,3.7-13.9
		c0.1-0.4,0.3-0.9,0.4-1.3s0.3-0.9,0.4-1.3c0.2-1,0.5-1.7,0.7-2.3c0.2-0.6,0.5-1,0.7-1.3c0.3-0.3,0.6-0.5,1-0.7
		c0.4-0.2,1-0.3,1.8-0.4c0.5-0.2,0.9-0.3,1.4-0.3c0.5-0.1,0.9-0.3,1.3-0.7c0.9-1,1.8-1.5,2.7-1.7s1.8-0.3,2.7-0.3
		c1.5-0.1,3-0.1,4.4,0.1c1.4,0.1,2.8,0.5,4.1,1.1c1.1,0.4,2.3,0.7,3.5,0.6c1.3,0,2.5-0.1,3.9-0.2c1.5-0.1,2.9,0,4.3,0.2
		c1.3,0.2,2.6,0.8,3.7,1.6c1.2,0.8,2.2,1.9,2.9,3.2c0.8,1.3,1.4,2.7,1.9,4.2c0.4,1,0.4,2.1,0,3.5s-1,2.6-1.7,3.6
		c-1,1.4-2.1,2.1-3.2,2.1c-2.3-0.1-4.6-0.2-6.9-0.2c-2.3-0.1-4.6-0.2-6.9-0.3c-0.8-0.1-1.7-0.3-2.4-0.6c-0.8-0.3-1.6-0.6-2.4-0.8
		L704.3,1085L704.3,1085z"/>
</g>
<g class="st7">
	<path d="M379.1,719.4c-0.6-0.3-1.1-0.6-1.6-0.9c-0.5-0.3-1.1-0.6-1.6-0.9c0-0.2,0-0.4,0-0.6s0-0.5,0-0.7c0.1-0.1,0.2-0.2,0.4-0.3
		s0.3-0.2,0.4-0.3c0.6-0.3,1.3-0.6,1.8-1c0.6-0.4,1.2-0.8,1.7-1.3c2.2-1.7,4.3-3.4,6.3-5.1c2.1-1.7,4.1-3.5,6.1-5.3
		c0.2-0.2,0.5-0.4,0.7-0.6c0.2-0.2,0.5-0.3,0.7-0.5c0.1-0.1,0.2-0.2,0.4-0.2c0.1-0.1,0.3-0.2,0.4-0.3c0.5-0.6,1.1-1.1,1.8-1.4
		c0.7-0.4,1.4-0.8,2.1-1.2c0.6-0.4,1.2-0.6,1.8-0.8c0.6-0.1,1.1-0.1,1.7,0c0.3,0.1,0.7,0.1,1,0.1c0.3,0,0.6,0.1,0.9,0.2
		c0.6,0.2,1.1,0.5,1.3,1c0.2,0.5,0.2,1.1,0,1.7c-0.6,1.6-1.3,3.1-1.8,4.7c-0.6,1.5-1.3,3.1-2.1,4.7c-0.9,1.7-1.8,3.4-2.6,5.1
		c-0.8,1.7-1.6,3.4-2.3,5.1c-0.6,1.3-1.1,2.6-1.6,3.9c-0.4,1.3-0.9,2.6-1.4,4c-0.3,1-0.7,1.9-1,2.9c-0.3,1-0.6,1.9-1,2.9
		c-0.1,0.2-0.1,0.4-0.2,0.6s-0.2,0.4-0.3,0.6c-0.2,0.5-0.5,1-0.9,1.4c-0.4,0.4-0.9,0.7-1.6,0.9c-0.6,0.2-1.3,0.5-1.9,0.7
		c-0.6,0.3-1.2,0.5-1.8,0.7c-0.6-0.2-1.3-0.4-1.9-0.6c-0.6-0.2-1.2-0.4-1.9-0.6c-0.1-0.2-0.1-0.4-0.1-0.6c0-0.2,0-0.4-0.1-0.7
		c0-0.2,0-0.4,0-0.7c0-0.2,0.1-0.4,0.1-0.7c0.5-1,0.9-2,1.2-3s0.6-2,1-3c0.6-1.5,1.1-3,1.6-4.4c0.5-1.5,1-2.9,1.6-4.4
		c0.3-0.7,0.6-1.4,0.9-2.1c0.3-0.7,0.7-1.3,1-2c0.1-0.3,0.3-0.6,0.5-0.9c0.2-0.3,0.4-0.7,0.5-1.1c-0.6,0.1-1,0.3-1.4,0.6
		c-0.4,0.3-0.8,0.6-1.2,0.8c-0.5,0.4-1.1,0.8-1.6,1.1c-0.5,0.3-1.1,0.6-1.7,0.8c-0.3,0.1-0.6,0.2-0.8,0.3c-0.3,0.1-0.6,0.2-0.8,0.2
		c-0.5,0.1-1.1,0.3-1.6,0.4s-1,0.2-1.5,0.3L379.1,719.4z"/>
	<path d="M425.1,732.6c0.3,0.2,0.4,0.4,0.5,0.7c0.1,0.3,0.2,0.6,0.3,0.9c-0.5,0.9-1.2,1.5-2,1.8c-0.4,0.1-0.7,0.3-0.9,0.4
		c-0.5,0.4-1,0.7-1.4,0.8c-0.5,0.1-1,0.1-1.5,0.1c-0.8-0.1-1.6-0.1-2.4-0.1c-0.8,0-1.6-0.1-2.4-0.1c-0.4,0-0.8,0-1.2,0
		c-0.4,0-0.8,0-1.2,0c-0.5,0-1,0-1.5-0.1s-1,0-1.5-0.1c-0.7,0-1.5,0-2.2-0.1c-0.7,0-1.5,0-2.2-0.1h-2.4c-0.2,0-0.4,0-0.6,0
		c-0.2,0-0.3-0.2-0.3-0.5c0-0.1-0.1-0.2-0.2-0.2c-0.3,0.1-0.6,0.1-0.7,0c-0.2-0.1-0.3-0.2-0.5-0.4s-0.3-0.3-0.4-0.5
		c-0.1-0.2-0.3-0.2-0.5-0.3c-0.1,0-0.1,0-0.1-0.1c0-0.1,0-0.1,0-0.1c0.1-0.1,0.1-0.3,0.1-0.4c0-0.1,0-0.2-0.1-0.3
		c0-0.1-0.1-0.2-0.1-0.3c-0.1-0.1-0.1-0.2,0-0.4c1.6-1.9,3.2-3.8,4.7-5.7s3.1-3.8,4.7-5.8c1.2-1.5,2.5-3,3.7-4.5
		c1.2-1.5,2.4-3,3.6-4.6c0.6-0.8,1.2-1.6,1.7-2.5s1-1.7,1.5-2.5c0.5-0.9,0.8-1.7,1-2.6c0.2-0.9,0.4-1.8,0.6-2.7
		c-0.3,0.1-0.5,0.3-0.8,0.3c-0.2,0.1-0.4,0.2-0.6,0.3c-0.8,0.6-1.6,1-2.4,1.3c-0.8,0.3-1.6,0.5-2.4,0.7c-0.5,0.1-1,0.2-1.5,0.4
		c-0.5,0.1-1,0.2-1.4,0.2c-0.4,0-0.8-0.1-1.2-0.2c-0.4-0.2-0.8-0.3-1.2-0.4c0.1-0.2,0.1-0.5,0.2-0.7c0.1-0.3,0.1-0.5,0.2-0.8
		c0.1-0.4,0.2-0.8,0.5-1.1c0.3-0.3,0.6-0.6,1-0.9c1.2-0.8,2.4-1.6,3.6-2.3s2.5-1.4,3.8-1.9c1.1-0.4,2.1-0.7,3.1-0.8
		c1-0.1,1.9-0.1,2.9-0.1c0.6,0.1,1.1,0.1,1.6,0.3c0.5,0.1,1,0.2,1.4,0.4c0.5,0.1,0.9,0.3,1.2,0.5s0.6,0.5,0.9,0.9
		c0.6,0.7,0.8,1.6,0.6,2.7c-0.5,2.2-1,4.4-1.6,6.6c-0.1,0.4-0.2,0.7-0.4,1.1c-0.2,0.4-0.4,0.7-0.6,1.1c-0.6,1.1-1.3,2.2-2,3.2
		c-0.7,1-1.5,2.1-2.3,3.1c-0.4,0.5-0.8,1-1.2,1.5s-0.8,1-1.2,1.5c-1.1,1.3-2.3,2.7-3.4,4c-1.1,1.3-2.2,2.6-3.3,4
		c-0.6,0.6-1.1,1.3-1.6,1.9c-0.5,0.6-1,1.3-1.3,2.1c0.1,0.1,0.3,0.1,0.4,0.1c0.1,0,0.2,0.1,0.3,0.1c0.8,0.1,1.5,0.1,2.3,0.1
		c0.8,0,1.5,0,2.3,0.1c0.8,0,1.5,0.1,2.3,0.1c0.8,0,1.5,0,2.3,0c0.7,0,1.4,0.1,1.9,0.3c0.5,0.2,1.1,0.5,1.6,0.8L425.1,732.6z"/>
</g>
<g class="st7">
	<path d="M536.5,852.6c0.1-0.2,0-0.3-0.1-0.5s-0.3-0.4-0.4-0.6c0.4-0.2,0.8-0.4,1.2-0.6c0.4-0.2,0.7-0.3,1.1-0.5
		c0.1-0.1,0.3-0.3,0.3-0.4c0.1-0.1,0.2-0.3,0.3-0.5c0.1-0.1,0.3-0.1,0.5-0.2c0.2-0.1,0.3-0.1,0.5-0.1c1-0.1,1.9-0.3,2.8-0.7
		c0.9-0.3,1.9-0.7,2.9-0.9c0.7-0.2,1.3-0.6,1.8-1c0.5-0.4,1-1,1.4-1.6c0.3-0.5,0.4-1,0.3-1.3s-0.5-0.5-1.1-0.4c-0.1,0-0.3,0-0.5,0.1
		s-0.3,0-0.5,0.1c-1.2,0.3-2.3,0.6-3.5,0.8c-1.2,0.3-2.3,0.7-3.5,1.2c-0.1,0.1-0.3,0.1-0.5,0.1c-0.2,0-0.3,0-0.4,0
		c-0.3-0.1-0.7-0.2-1-0.1c-0.4,0.1-0.7,0.2-1,0.4c-0.6-0.2-1-0.5-1.3-0.9c-0.3-0.4-0.6-0.7-1.1-0.9c-0.3-0.1-0.4-0.3-0.3-0.6
		c0-0.3,0-0.6,0-0.8c0.6-0.5,1.3-0.9,2-1.3s1.4-0.7,2.1-1c0.8-0.4,1.6-0.8,2.3-1c1.1-0.3,2.3-0.6,3.4-0.8c1.1-0.2,2.3-0.5,3.4-0.8
		c1.3-0.3,2.5-0.4,3.6-0.2c1.1,0.2,2.1,0.5,3,1c0.6,0.3,1.1,0.6,1.6,1c0.5,0.4,0.9,0.8,1.4,1.2c0.7,0.5,1.1,1.2,1.3,2
		c0.2,0.9,0,1.8-0.4,2.6c-0.4,0.8-1,1.7-1.8,2.4c-0.4,0.4-0.8,0.8-1.2,1.1s-0.9,0.7-1.3,1.1c0.1,0.1,0.3,0.2,0.3,0.3
		c0.1,0.1,0.2,0.2,0.3,0.2c0.8,0.4,1.5,0.8,2.1,1.3c0.7,0.5,1.2,1.1,1.5,1.8c0.7,1.3,1,2.8,1.1,4.3c0,1.5-0.5,3.1-1.5,4.9
		c-0.1,0.2-0.2,0.4-0.3,0.6c-0.1,0.2-0.2,0.4-0.3,0.6c-0.7,1.4-1.6,2.7-2.6,3.9c-1,1.2-2,2.4-3.1,3.7c-1.3,1.4-2.6,2.6-4.1,3.6
		s-3,1.9-4.6,2.8c-0.4,0.3-0.9,0.4-1.4,0.6c-0.5,0.1-1,0.3-1.4,0.4c-1.5,0.3-2.9,0.5-4.2,0.5s-2.6-0.1-3.8-0.5
		c-0.5-0.1-0.9-0.3-1.3-0.5c-0.4-0.2-0.7-0.5-1.1-0.9c-0.2-0.3-0.4-0.5-0.7-0.8c-0.2-0.3-0.5-0.5-0.8-0.6c-0.5-0.3-0.9-0.6-1.2-1
		c-0.3-0.4-0.5-0.8-0.6-1.3c-0.1-0.5-0.1-1-0.1-1.5c0.1-0.5,0.2-1.1,0.3-1.7c0.1-0.4,0.2-0.7,0.3-1.1c0.1-0.4,0.3-0.8,0.4-1.2
		c0.5-0.3,1-0.6,1.6-0.9c0.6-0.3,1-0.7,1.3-1.3c0.9-0.3,1.7-0.4,2.4-0.5c0.7-0.1,1.2-0.1,1.7,0c0.5,0.1,0.9,0.3,1.3,0.7
		c0.4,0.3,0.7,0.7,1,1.3c-0.3,0.7-0.5,1.4-0.7,2.2c-0.2,0.7-0.2,1.4-0.2,2.2c0,0.5,0.2,1,0.6,1.3s0.9,0.4,1.4,0.3
		c0.9-0.2,1.8-0.5,2.7-0.9c0.3-0.1,0.5-0.3,0.7-0.5c0.2-0.2,0.5-0.4,0.7-0.6c0.2-0.2,0.4-0.5,0.7-0.7c0.2-0.3,0.4-0.5,0.7-0.7
		c0.8-0.7,1.5-1.5,2.1-2.3c0.6-0.8,1.1-1.7,1.6-2.5c0.4-0.6,0.7-1.2,1-1.8c0.3-0.6,0.6-1.2,0.9-1.8c0.3-0.6,0.5-1.2,0.7-1.8
		s0.3-1.2,0.3-1.7c0.1-1.1-0.3-1.9-1.3-2.2c-0.8-0.3-1.6-0.5-2.4-0.7c-0.8-0.1-1.7-0.2-2.6-0.1c-0.5,0-1,0.1-1.4,0.1
		c-0.5,0.1-0.9,0-1.3-0.2c-0.2-0.1-0.4-0.1-0.6,0c-0.2,0-0.5,0-0.7,0c-0.1,0-0.3-0.1-0.4-0.1c-0.1,0-0.2-0.1-0.3-0.2
		c-0.1-0.2-0.2-0.4-0.4-0.4c-0.2,0-0.4-0.1-0.5-0.2c-0.3-0.1-0.5-0.3-0.8-0.5c-0.2-0.2-0.3-0.5-0.3-0.9L536.5,852.6z"/>
</g>
<g class="st7">
	<path d="M409.2,990.3c-0.4,0.3-0.7,0.7-1.2,1.2c-0.4,0.4-0.8,0.9-1.2,1.4c-0.4,0.5-0.8,0.9-1.2,1.4c-0.4,0.5-0.7,0.9-0.9,1.3
		c0.2,0,0.3,0,0.5,0c0.1,0,0.2,0,0.3,0c1-0.3,2-0.4,3-0.4c1,0,1.9,0,2.9,0c0.3,0,0.5,0,0.8,0c0.3,0,0.5,0.1,0.7,0.2
		c1,0.6,1.9,1.2,2.7,1.9c0.8,0.7,1.4,1.6,1.8,2.7c0.1,0.2,0.2,0.4,0.2,0.7c0.1,0.2,0.2,0.4,0.3,0.6c0.4,0.7,0.6,1.5,0.6,2.4
		c0,0.9,0,1.8-0.1,2.7c0,0.2-0.1,0.4-0.2,0.7c-0.1,0.2-0.2,0.4-0.3,0.7c-0.2,0.6-0.4,1.1-0.7,1.7c-0.2,0.6-0.4,1.1-0.6,1.7
		c-0.2,0.6-0.5,1.1-0.7,1.6c-0.2,0.5-0.6,1-1,1.6c-0.2,0.2-0.4,0.5-0.5,0.7c-0.9,1.6-2,3-3.3,4.1c-1.3,1.2-2.8,2.2-4.5,3
		c-1.2,0.6-2.4,1.1-3.5,1.3c-1.2,0.3-2.4,0.4-3.7,0.5c-0.1,0-0.2,0-0.3,0c-0.1,0-0.1,0-0.3,0c-1.7,0.1-3.2-0.1-4.3-0.6
		c-1.2-0.5-2.2-1.3-3.1-2.3c-0.2-0.2-0.4-0.4-0.6-0.5c-0.2-0.1-0.4-0.3-0.7-0.4c-1.7-1.2-2.5-2.9-2.4-5.2c0-1,0.1-2,0.3-3
		s0.4-2,0.7-3c0.4-1.3,0.8-2.6,1.2-3.9c0.4-1.3,0.9-2.6,1.4-3.9c1.1-2.5,2.4-4.9,4-7.1c1.6-2.3,3.5-4.4,5.8-6.4
		c0.3-0.3,0.7-0.6,1.1-0.8c0.4-0.3,0.7-0.5,1.1-0.8c0.5-0.3,1-0.6,1.5-0.9c0.5-0.3,1-0.6,1.4-0.9c0.7-0.4,1.5-0.8,2.2-1
		c1.5-0.5,2.9-0.7,4.2-0.7c1.3,0,2.5,0.2,3.7,0.6c0.8,0.3,1.4,0.9,1.6,1.8c0.2,1-0.3,1.7-1.3,2.4c-0.4,0.3-0.8,0.4-1.1,0.5
		c-0.3,0.1-0.6,0.2-1,0.3c-0.4,0.1-0.7,0.1-1,0.2c-0.6,0.1-1.1,0.3-1.4,0.4c-0.4,0.1-0.7,0.2-1,0.4c-0.3,0.2-0.6,0.4-0.9,0.6
		c-0.3,0.2-0.7,0.6-1.1,1V990.3z M401.1,1004.2c-0.1,0.1-0.3,0.1-0.4,0.2c-0.1,0.1-0.3,0.1-0.5,0.2c-0.4,1-0.8,2-1.1,2.9
		c-0.3,0.9-0.5,1.9-0.8,2.8c-0.2,0.8-0.3,1.7-0.4,2.4c0,0.8,0,1.6,0.1,2.4c0.1,1,0.6,1.7,1.5,2c0.5,0.2,1,0.3,1.6,0.4
		c0.5,0.1,1.1,0,1.8-0.2c0.7-0.9,1.3-1.8,2-2.7c0.6-0.9,1.1-1.9,1.4-2.9c0.3-0.9,0.6-1.7,1-2.5c1.1-2.5,1.3-4.7,0.4-6.6
		c-0.2-0.5-0.6-0.8-1.1-0.9c-0.5-0.1-1.1,0.1-1.8,0.5c-0.3,0.2-0.6,0.4-0.8,0.5C403.1,1003.5,402.1,1004,401.1,1004.2L401.1,1004.2z
		"/>
</g>
<g class="st7">
	<path d="M248.1,862.8c0.4-0.1,0.7-0.3,1-0.5c0.2-0.3,0.5-0.4,0.8-0.6c0.4,0,0.8,0,1.2-0.1c0.4,0,0.8,0,1.2-0.1
		c1-0.1,1.7,0.1,2.4,0.3s1.2,0.8,1.8,1.5c-0.3,1.1-0.6,2.1-0.9,3.2s-0.6,2.1-0.9,3.2c-0.2,0.9-0.4,1.5-0.4,2c-0.1,0.4,0,0.8,0.2,1
		c0.2,0.2,0.5,0.4,1,0.4c0.5,0.1,1.1,0.1,2,0.2c0.2,0,0.3,0,0.5,0c0.2,0,0.4,0,0.6,0c0.4-1,0.8-1.9,1-2.8c0.2-0.9,0.5-1.8,0.8-2.7
		c0.5-1.8,1-3.6,1.5-5.4c0.3-0.9,0.6-1.8,0.8-2.7c0.3-0.9,0.6-1.8,0.9-2.8c-0.2-0.1-0.4-0.2-0.6-0.3c-0.2-0.1-0.4-0.2-0.6-0.2
		c-0.4-0.1-1-0.2-1.6-0.2c-1.3,0-2.4-0.3-3.1-0.9c-0.7-0.5-1.3-1.3-1.8-2.1c-0.1-0.3-0.3-0.6-0.4-0.9c-0.2-0.3-0.3-0.5-0.6-0.8
		c-0.7-0.7-1.1-1.5-1.2-2.3c-0.1-0.8,0-1.7,0.4-2.7c0.3-0.8,0.7-1.7,1.2-2.5s1.1-1.6,2-2.3c0.7-0.6,1.5-1.2,2.2-1.8
		c0.7-0.6,1.6-1,2.6-1.2c0.3-0.1,0.6-0.2,0.9-0.3c0.3-0.1,0.7-0.3,1-0.4c0.9-0.4,1.7-0.6,2.6-0.7c0.8,0,1.6,0.1,2.4,0.3
		c0.5,0.1,1,0.3,1.5,0.5c0.5,0.2,1,0.4,1.5,0.5c0.6,0.2,1.1,0.3,1.7,0.5c0.6,0.2,1.2,0.3,1.7,0.4c0.4,0.1,0.8,0.2,1.1,0.4
		s0.6,0.4,0.8,0.6c0.5,0.4,0.7,1,0.6,1.6c-0.1,0.6-0.2,1.1-0.3,1.6c-0.1,0.5-0.2,1.1-0.3,1.6c0,0.3,0,0.5-0.1,0.7
		c-0.7,1.2-1.2,2.5-1.5,3.7s-0.6,2.4-1,3.7c-0.4,1.1-0.7,2.2-1,3.3c-0.3,1.1-0.7,2.2-1.2,3.3c-0.3,0.7-0.5,1.5-0.7,2.2
		c-0.2,0.7-0.4,1.5-0.6,2.2c-0.2,0.9-0.5,1.8-0.7,2.6s-0.5,1.8-0.8,2.6c-0.1,0.6-0.3,1.3-0.4,1.9c-0.2,0.6-0.3,1.3-0.4,1.9
		c-0.1,0.7-0.5,1.2-1,1.7s-1.1,0.9-1.8,1.2c-1.6,0.8-3.3,1.4-4.9,1.8c-1.7,0.4-3.3,0.6-5,0.6c-1,0-2-0.1-3-0.2
		c-1-0.1-1.9-0.2-2.9-0.3c-0.4-0.1-0.8-0.1-1.2-0.3s-0.8-0.3-1.2-0.4c-0.2-0.1-0.3-0.2-0.4-0.3c-0.8-1.1-1.7-2.1-2.9-2.9
		c-0.6-0.4-0.8-1-0.8-1.7c0.1-0.4,0.1-0.9,0.2-1.3c0.1-0.4,0.1-0.9,0.3-1.3c0.2-0.8,0.5-1.6,0.7-2.5c0.3-0.8,0.4-1.6,0.5-2.5
		c0-0.1,0-0.3,0.1-0.5c0.1-0.4,0.2-0.7,0.3-0.9c0.1-0.2,0.3-0.4,0.4-0.6c0.2-0.2,0.4-0.3,0.7-0.4C247.2,863.1,247.6,863,248.1,862.8
		L248.1,862.8z M263.7,850c0.4-0.3,0.8-0.7,1.2-1.1c0.4-0.5,0.7-1,1.1-1.5c0.3-0.5,0.6-1.1,0.8-1.6s0.3-1,0.4-1.5
		c-0.7,0.5-1.3,1-1.8,1.4c-0.5,0.5-0.9,1.1-1.2,1.8c-0.3,0.5-0.4,0.9-0.5,1.2S263.6,849.5,263.7,850L263.7,850z"/>
</g>
<circle class="st8" cx="402.7" cy="859.3" r="12"/>
<line class="st9" x1="327.5" y1="859" x2="402.7" y2="859.3"/>
<line class="st9" x1="401.6" y1="750.6" x2="401.6" y2="855.9"/>
<polygon class="st10" points="401.5,748.3 393.9,759.8 401.1,756.5 408.4,759.5 "/>
<polygon class="st10" points="320.7,859.4 332.2,867 328.9,859.8 331.9,852.5 "/>
<path class="st11" d="M744,697.9c0,0,14.4-0.7,18.1-1.8v7h-17.4L744,697.9z"/>
</svg>
