<?xml version="1.0" encoding="utf-8"?>
<!-- Generator: Adobe Illustrator 23.1.0, SVG Export Plug-In . SVG Version: 6.00 Build 0)  -->
<svg version="1.1" id="Layer_1" xmlns="http://www.w3.org/2000/svg" xmlns:xlink="http://www.w3.org/1999/xlink" x="0px" y="0px"
	 viewBox="0 0 100 100" style="enable-background:new 0 0 100 100;" xml:space="preserve">
<style type="text/css">
	.st0{fill:#FFFFFF;}
</style>
<g>
	<g>
		<path class="st0" d="M40,71.4c-0.1-0.1-0.1-0.2,0-0.3C40,71.2,40,71.3,40,71.4z"/>
	</g>
	<g>
		<path class="st0" d="M40,77.1c-0.1-0.1-0.1-0.2,0-0.3C40,76.8,40,77,40,77.1z"/>
	</g>
	<g>
		<path class="st0" d="M59.6,71.7c2-0.4,3.9-0.7,5.9-1.2c5.8-1.5,10.8-4.3,13.5-10c3-6.2,3.7-12.8,1.5-19.4
			c-0.7-2.1-2.2-3.9-3.3-5.9c-0.2-0.4-0.4-0.9-0.3-1.3c1.1-3.9,0.8-7.7-0.5-11.4c-0.2-0.6-0.6-0.8-1.2-0.8c-2.4,0-4.6,0.8-6.7,1.8
			c-1.8,0.9-3.4,1.9-5.2,2.8c-0.4,0.2-1,0.3-1.5,0.2c-7.6-1.9-15.3-1.9-22.9,0c-0.5,0.1-1.1,0-1.6-0.3c-3.2-2-6.5-3.8-10.3-4.5
			c-0.2,0-0.3-0.1-0.5-0.1c-1.9-0.2-2-0.2-2.5,1.6c-1.1,3.5-1.3,7.1-0.2,10.6c0.1,0.4,0,0.9-0.3,1.2c-3.7,4.5-4.9,9.6-4.4,15.3
			c0.3,3.3,0.9,6.6,2.3,9.7c2.9,6.1,8.1,9.1,14.4,10.6c1.7,0.4,3.4,0.6,5.3,1c-1.6,1.8-2.5,3.8-2.9,6.1c0,0.2-0.4,0.5-0.7,0.6
			c-5.2,2-10.3,1.2-13.5-4.1c-1.5-2.5-3.7-4.4-6.7-5c-0.7-0.1-1.6-0.1-2.3,0.1c-1,0.2-1.1,0.8-0.5,1.5c0.4,0.4,0.8,0.8,1.2,1.1
			c2.6,1.6,4.3,3.9,5.4,6.7c1.9,4.6,5.5,6.6,10.1,6.9c2.1,0.1,4.3-0.1,6.6-0.2c0,0.2,0.1,0.6,0.1,0.9c0,2.4,0,4.9,0,7.3
			s-1.4,3.5-3.7,2.7c-5.9-2-11.3-5-16.1-9.1C9.2,79.2,3.5,69.3,1.9,57.4c-2.3-16.7,2.7-31,15-42.7C24.7,7.2,34.2,3,44.9,1.8
			c25.5-2.8,48.2,14,53.3,37.9C103.4,64,90,87.8,66.6,96c-0.5,0.2-1,0.3-1.5,0.4c-1.7,0.1-2.7-0.8-2.7-2.5c0-4.5,0.1-9.1,0-13.6
			c-0.1-1.9-0.6-3.7-1.1-5.5C61,73.7,60.2,72.8,59.6,71.7z"/>
	</g>
</g>
</svg>
