<?xml version="1.0" encoding="utf-8"?>
<!-- Generator: Adobe Illustrator 23.1.0, SVG Export Plug-In . SVG Version: 6.00 Build 0)  -->
<svg version="1.1" id="Layer_1" xmlns="http://www.w3.org/2000/svg" xmlns:xlink="http://www.w3.org/1999/xlink" x="0px" y="0px"
	 viewBox="0 0 100 100" style="enable-background:new 0 0 100 100;" xml:space="preserve">
<style type="text/css">
	.st0{fill:#FFFFFF;}
</style>
<g>
	<g>
		<path class="st0" d="M31.7,63.5c1.4-1.4,2.9-2.7,4.4-3.9c2-1.6,4.1-3.1,6.3-4.4c2-1.2,4-2.3,6.1-3.2c1.8-0.8,3.6-1.4,5.4-2
			c0.3-0.1,0.3-0.1,0.2-0.4c-0.7-1.6-1.5-3.2-2.2-4.8c-0.2-0.3-0.3-0.7-0.5-1c-0.1-0.3-0.2-0.3-0.4-0.2h-0.1
			c-3.3,1-6.7,1.8-10.1,2.5c-2.6,0.5-5.2,1-7.9,1.3c-1.9,0.3-3.9,0.5-5.8,0.7c-1.4,0.1-2.8,0.3-4.2,0.4c-1.3,0.1-2.5,0.2-3.8,0.2
			s-2.6,0.1-3.6,0.1s-1.6,0-2.2,0c-0.6,0-0.6,0-0.6,0.6c0,0.9,0,1.8,0.1,2.7c0.1,1.1,0.2,2.2,0.3,3.3c0.3,1.9,0.7,3.7,1.3,5.5
			c0.8,2.6,1.9,5.1,3.2,7.5c1,1.8,2.2,3.5,3.5,5.1c0.4,0.5,0.8,0.9,1.2,1.4c0.2,0.2,0.2,0.2,0.4,0c0,0,0,0,0-0.1
			c1-1.6,2.1-3.1,3.2-4.6c1.2-1.6,2.5-3.1,3.8-4.5C30.2,65,30.9,64.3,31.7,63.5z"/>
	</g>
	<g>
		<path class="st0" d="M13.8,42.4c0.6,0,1.2,0,1.8,0c0.7,0,1.5,0,2.3-0.1c1.4-0.1,2.8-0.1,4.1-0.2c1.3-0.1,2.6-0.2,4-0.3
			c1.6-0.2,3.2-0.3,4.8-0.6c2.1-0.3,4.2-0.6,6.3-1c3.6-0.6,7.1-1.4,10.6-2.3c0.4-0.1,0.4-0.1,0.2-0.5c-0.7-1.3-1.5-2.6-2.2-3.8
			c-1.5-2.5-3-5-4.6-7.5c-2.1-3.3-4.3-6.6-6.6-9.7c-0.2-0.3-0.2-0.3-0.5-0.1c-0.6,0.3-1.1,0.6-1.7,0.9c-2.7,1.5-5.3,3.3-7.5,5.4
			c-1.2,1.1-2.3,2.2-3.3,3.5c-1.9,2.3-3.5,4.7-4.8,7.4c-0.7,1-1.3,2.3-1.7,3.5c-0.6,1.6-1.1,3.3-1.5,5
			C13.4,42.4,13.4,42.4,13.8,42.4z"/>
	</g>
	<g>
		<path class="st0" d="M64.5,82.8c-0.5-2.7-1.1-5.4-1.8-8.1c-0.6-2.5-1.3-5-2.1-7.4c-0.8-2.5-1.6-5.1-2.5-7.6
			c-0.4-1.1-0.8-2.1-1.2-3.2c-0.1-0.4-0.2-0.4-0.5-0.3c-1,0.3-1.9,0.7-2.9,1.1c-2.2,0.9-4.3,1.9-6.3,3c-2.2,1.2-4.3,2.6-6.4,4.1
			c-2.2,1.6-4.2,3.3-6.1,5.3c-0.8,0.8-1.6,1.6-2.3,2.5c-1.5,1.8-2.9,3.6-4.1,5.6c-0.3,0.5-0.6,1-0.9,1.5c-0.2,0.4-0.2,0.4,0.1,0.6
			c0,0,0.1,0,0.1,0.1c2.3,1.7,4.8,3.2,7.4,4.4c3,1.3,6.1,2.2,9.3,2.7c2,0.3,4,0.4,6,0.5c1.1,0,2-0.1,3-0.1c1-0.1,2-0.2,2.9-0.3
			c1.7-0.3,3.3-0.6,4.9-1.1c1.1-0.3,2.3-0.8,3.4-1.2c0.3-0.1,0.3-0.2,0.3-0.5C64.7,83.8,64.6,83.3,64.5,82.8z"/>
	</g>
	<g>
		<path class="st0" d="M42.3,15c1.4,2,2.8,4,4.2,6c1.1,1.7,2.3,3.4,3.3,5.2c1.4,2.3,2.8,4.6,4.2,7c0.4,0.7,0.7,1.3,1.1,2
			c0.2,0.4,0.3,0.4,0.7,0.2l0,0c1.6-0.6,3.2-1.3,4.7-2.1c2.5-1.2,4.9-2.7,7.2-4.3c2.2-1.6,4.2-3.3,6-5.3c0.4-0.5,0.8-0.9,1.2-1.4
			c0.2-0.2,0.2-0.3-0.1-0.5c-1.1-0.9-2.2-1.8-3.4-2.6c-3.2-2.2-6.7-3.9-10.4-5c-3.5-1.1-7.1-1.6-10.8-1.6c-0.9,0-1.7,0-2.5,0.1
			c-1.4,0.1-2.8,0.2-4.2,0.5c-0.6,0.1-1.3,0.2-1.9,0.4c-0.3,0.1-0.3,0.1-0.1,0.4C41.8,14.3,42.1,14.6,42.3,15z"/>
	</g>
	<g>
		<path class="st0" d="M50,1C22.9,1,1,22.9,1,50s21.9,49,49,49s49-21.9,49-49S77.1,1,50,1z M94,47.7c0,1.6,0,3.2,0,4.8
			c-0.1,0.1-0.1,0.2,0,0.3c0,0.3,0,0.7,0,1c0-0.1-0.1,0-0.1,0c0,0.1,0,0.1,0,0.2c-0.1,0.9-0.2,1.8-0.3,2.7c-0.5,3.2-1.3,6.4-2.5,9.4
			c-4.9,12.5-15.5,22.3-28.5,26.1c-2.3,0.7-4.7,1.2-7.1,1.5C54.2,93.9,53,94,51.7,94c-0.1,0-0.2,0-0.4,0c-0.1,0-0.1,0.1,0,0.1
			c-0.8,0-1.6,0-2.3,0c0.1,0,0-0.1,0-0.1c-0.1,0-0.3,0-0.4,0c-1.4,0-2.7-0.2-4-0.3c-2.2-0.3-4.4-0.7-6.6-1.4
			c-10.7-3.2-19.1-9.6-25.1-19c-2.7-4.3-4.6-9-5.7-14c-0.4-1.8-0.7-3.7-0.8-5.6c0-0.4-0.1-0.9-0.1-1.3c0-0.1,0.1-0.2-0.1-0.2
			c0-0.1,0-0.1,0-0.2h0.1c0,0,0-0.1-0.1,0c0-1.1,0-2.2,0-3.4c0.1,0,0.1-0.1,0.1-0.1s0,0-0.1,0v-0.1c0.2,0,0.1-0.1,0.1-0.2
			c0-0.4,0.1-0.9,0.1-1.3c0.2-2.2,0.5-4.4,1-6.6c2.3-9.6,7.3-17.6,15-23.9c5.2-4.3,11.2-7.2,17.7-8.8c2.3-0.5,4.7-0.9,7-1
			c0.1,0,0.2,0,0.3-0.1c0.1,0,0-0.1,0-0.1c0.2,0,0.4,0,0.7,0v0.1c0,0,0.1,0,0-0.1c1.3,0,2.6,0,3.9,0c0,0.1,0.1,0.1,0.1,0.1
			s0,0,0-0.1c0.2,0,0.4,0,0.6,0c0,0.2,0.2,0.1,0.2,0.1c0.6,0,1.2,0.1,1.8,0.2C57,6.6,59.1,7,61.2,7.6c8.2,2.2,15.3,6.3,21.1,12.5
			c6.6,7.1,10.5,15.6,11.6,25.3c0,0.3,0.1,0.6,0.1,0.9c0,0,0,0.2,0.1,0.1c0,0.3,0,0.7,0,1C93.9,47.5,93.9,47.6,94,47.7z"/>
	</g>
	<g>
		<path class="st0" d="M86.8,55.9h-0.1c-2-0.6-4.1-1-6.2-1.3c-1.9-0.3-3.8-0.5-5.8-0.6c-1-0.1-2-0.1-3.1-0.1c-0.6,0-1.3,0-1.9,0
			c-1.4,0-2.8,0.2-4.2,0.3c-0.4,0.1-0.9,0.1-1.3,0.2c-0.3,0.1-0.3,0.1-0.2,0.4c0,0,0,0,0,0.1c0.9,2.4,1.6,4.7,2.4,7.1
			c0.9,2.9,1.7,5.8,2.5,8.8c0.8,3.3,1.6,6.5,2.2,9.9c0.1,0.5,0.1,0.5,0.5,0.2c1.7-1.1,3.2-2.4,4.7-3.8c1-1,1.9-2,2.8-3
			c1.7-2.1,3.2-4.3,4.5-6.7c1-2,1.9-4.1,2.6-6.2c0.5-1.5,0.8-3.1,1.1-4.7C87.2,56.1,87.1,56,86.8,55.9z"/>
	</g>
	<g>
		<path class="st0" d="M87.5,46.5c-0.1-1.1-0.3-2.3-0.5-3.4c-0.6-3-1.5-6-2.8-8.8c-1.3-2.7-2.8-5.3-4.7-7.6c-0.3-0.3-0.3-0.3-0.6,0
			c-1.1,1.3-2.3,2.6-3.5,3.8c-1.2,1.1-2.4,2.1-3.6,3.1c-1.9,1.5-4,2.8-6.1,4c-1.9,1.1-3.8,2.1-5.8,2.9c-0.4,0.2-0.9,0.4-1.3,0.6
			c-0.3,0.1-0.3,0.2-0.2,0.4c0,0.1,0.1,0.2,0.1,0.3c0.3,0.6,0.6,1.2,0.8,1.8c0.7,1.6,1.4,3.1,2.1,4.7c0.1,0.2,0.2,0.3,0.4,0.2
			c0.9-0.1,1.8-0.2,2.8-0.3c1.1-0.1,2.3-0.2,3.4-0.2c2.5,0,4.9,0,7.4,0.1c0.8,0.1,1.6,0.1,2.4,0.2c1.1,0.1,2.1,0.2,3.2,0.3
			c1.3,0.1,2.7,0.3,4,0.6c0.8,0.1,1.6,0.3,2.4,0.4c0.2,0,0.3,0,0.3-0.2s0-0.3,0-0.5C87.7,48.2,87.6,47.3,87.5,46.5z"/>
	</g>
</g>
</svg>
