<?xml version="1.0" encoding="utf-8"?>
<!-- Generator: Adobe Illustrator 23.1.0, SVG Export Plug-In . SVG Version: 6.00 Build 0)  -->
<svg version="1.1" id="Layer_1" xmlns="http://www.w3.org/2000/svg" xmlns:xlink="http://www.w3.org/1999/xlink" x="0px" y="0px"
	 viewBox="0 0 100 100" style="enable-background:new 0 0 100 100;" xml:space="preserve">
<style type="text/css">
	.st0{fill:#FFFFFF;}
</style>
<g>
	<path class="st0" d="M50,1C22.9,1,1,22.9,1,50s21.9,49,49,49s49-21.9,49-49S77.1,1,50,1z M76.4,36c-1.1,0.8-1.5,1.7-1.5,3.1
		c-0.5,13.7-6.4,24.5-18.2,31.7c-4.1,2.5-8.7,3.9-13.6,4.5c-4.5,0.5-8.9,0.4-13.3-0.7c-3.9-0.9-7.5-2.4-10.9-4.5
		c-0.1,0-0.1-0.1-0.3-0.3c7,0.6,13.2-1.1,18.7-5.2c-1.4-0.3-2.6-0.5-3.8-0.9c-3.7-1.3-6.3-3.9-7.8-7.6c-0.2-0.6,0-0.5,0.5-0.6
		c1.5,0,2.9-0.1,4.4-0.2c0.1,0,0.3-0.1,0.5-0.2c-6.9-1.8-10.2-7.7-10-12.8c1.8,0.9,3.6,1.5,5.6,1.6c-0.9-0.8-1.7-1.6-2.4-2.4
		c-3.4-3.9-4-9.6-1.7-14.2c0.3-0.6,0.5-0.5,0.9-0.1c3.7,4.3,8.1,7.6,13.3,9.9c3.9,1.7,7.9,2.7,12.2,3c0.5,0,0.6-0.1,0.5-0.6
		c-1.2-7.2,3.5-13.9,10.6-15C64,24,67.7,25,70.8,27.9c0.4,0.4,0.8,0.6,1.4,0.5c2.4-0.5,4.6-1.4,6.8-2.6c0.2-0.1,0.3-0.2,0.6-0.3
		c-1,2.9-2.7,5.1-5.1,6.9c2.3-0.1,4.5-0.9,6.8-1.8C79.9,32.7,78.4,34.5,76.4,36z"/>
</g>
</svg>
