<?xml version="1.0" encoding="utf-8"?>
<!-- Generator: Adobe Illustrator 23.1.0, SVG Export Plug-In . SVG Version: 6.00 Build 0)  -->
<svg version="1.1" id="Layer_1" xmlns="http://www.w3.org/2000/svg" xmlns:xlink="http://www.w3.org/1999/xlink" x="0px" y="0px"
	 viewBox="0 0 100 100" style="enable-background:new 0 0 100 100;" xml:space="preserve">
<style type="text/css">
	.st0{fill:#FFFFFF;}
</style>
<g>
	<path class="st0" d="M61.2,50c-3.7-2.4-7.1-4.8-10.7-7.1c-0.3-0.2-0.9-0.1-1.2,0c-3.5,2.3-6.9,4.6-10.6,7c3.7,2.5,7.2,4.8,10.7,7.1
		c0.3,0.2,0.9,0.1,1.3-0.1c1.6-1,3.2-2.1,4.9-3.2C57.5,52.5,59.3,51.3,61.2,50z"/>
	<path class="st0" d="M19.5,44.8c0,3.6,0,6.9,0,10.5c2.7-1.8,5.2-3.5,7.8-5.3C24.6,48.2,22.1,46.5,19.5,44.8z"/>
	<path class="st0" d="M53.7,37.2c4.4,3,8.9,6,13.3,8.9c3.7-2.5,7.3-4.9,11.1-7.4c-8.4-5.6-16.5-11-24.9-16.5c0,4.9,0,9.5,0,14.2
		C53.2,36.6,53.4,37.1,53.7,37.2z"/>
	<path class="st0" d="M46.2,37.3c0.3-0.2,0.6-0.9,0.6-1.4c0-4.2,0-8.3,0-12.5c0-0.3,0-0.7-0.1-1.2c-8.3,5.6-16.4,11-24.7,16.5
		c3.8,2.5,7.5,5,11.1,7.4C37.5,43.2,41.9,40.3,46.2,37.3z"/>
	<path class="st0" d="M46,62.4c-3.1-2.1-6.2-4.1-9.3-6.2c-1.2-0.8-2.3-2.2-3.5-2.2s-2.5,1.3-3.7,2.1c-2.5,1.6-5,3.3-7.6,5
		c8.3,5.5,16.4,10.9,24.8,16.5c0-5,0-9.6,0-14.2C46.8,63.2,46.3,62.7,46,62.4z"/>
	<path class="st0" d="M53.9,62.6c-0.4,0.3-0.7,1-0.7,1.4c-0.1,4.2,0,8.4,0,12.7c0,0.3,0.1,0.6,0.1,1c8.3-5.5,16.5-11,24.7-16.5
		c-3.8-2.5-7.4-4.9-11.1-7.4C62.6,56.7,58.2,59.6,53.9,62.6z"/>
	<path class="st0" d="M50,1C22.9,1,1,22.9,1,50s21.9,49,49,49s49-21.9,49-49S77.1,1,50,1z M85.1,64.2C74.2,71.4,63.3,78.7,52.4,86
		c-2,1.3-2.9,1.3-4.8,0C36.7,78.7,25.9,71.5,15,64.2c-1.4-0.9-2-2.1-2-3.7c0-7.1,0-14.2,0-21.2c0-1.6,0.6-2.7,1.9-3.5
		c11-7.3,22-14.7,33-22c1.4-0.9,2.7-1,4.2,0c11,7.4,22.1,14.7,33.2,22.1c1.2,0.8,1.8,1.8,1.8,3.3c0,3.6,0,7.3,0,10.9
		c0,3.5,0,7.1,0,10.6C87,62.2,86.4,63.3,85.1,64.2z"/>
	<path class="st0" d="M80.5,55.2c0-3.5,0-6.9,0-10.5c-2.7,1.8-5.2,3.5-7.8,5.3C75.4,51.8,77.9,53.4,80.5,55.2z"/>
</g>
</svg>
