<?xml version="1.0" encoding="utf-8"?>
<!-- Generator: Adobe Illustrator 23.1.0, SVG Export Plug-In . SVG Version: 6.00 Build 0)  -->
<svg version="1.1" id="Layer_1" xmlns="http://www.w3.org/2000/svg" xmlns:xlink="http://www.w3.org/1999/xlink" x="0px" y="0px"
	 viewBox="0 0 100 100" style="enable-background:new 0 0 100 100;" xml:space="preserve">
<style type="text/css">
	.st0{fill:#FFFFFF;}
</style>
<path class="st0" d="M50,1C22.9,1,1,22.9,1,50s21.9,49,49,49s49-21.9,49-49S77.1,1,50,1z M35.9,75.2c0,0.6-0.2,0.7-0.7,0.7
	c-3.4,0-6.8,0-10.3,0c-0.6,0-0.7-0.2-0.7-0.7c0-6.1,0-12.1,0-18.2c0-6,0-12,0-18.1c0-0.6,0.1-0.8,0.8-0.8c3.4,0,6.7,0,10.1,0
	c0.6,0,0.8,0.1,0.8,0.8C35.9,50.9,35.9,63,35.9,75.2z M30.1,32.9c-3.8,0-6.8-3.1-6.8-6.9s3.1-6.8,6.9-6.8c3.7,0,6.8,3.1,6.8,6.8
	C36.9,29.9,33.8,32.9,30.1,32.9z M79.1,75.9c-3.4,0-6.7,0-10.1,0c-0.6,0-0.8-0.1-0.8-0.8c0-6.3,0-12.6,0-18.8c0-1.6-0.2-3.2-0.6-4.7
	c-0.9-3.1-3.1-4.3-6.1-4.1c-4.4,0.2-5.9,3-6.4,6.5C55,55.1,55,56.2,55,57.2c0,5.9,0,11.9,0,17.8c0,0.6-0.1,0.8-0.8,0.8
	c-3.4,0-6.8,0-10.2,0c-0.6,0-0.7-0.2-0.7-0.7c0-12.1,0-24.2,0-36.3c0-0.6,0.1-0.7,0.7-0.7c3.3,0,6.5,0,9.8,0c0.5,0,0.7,0.2,0.7,0.7
	c0,1.5,0,3,0,4.4l0.2,0.1c0.3-0.5,0.7-1,1.1-1.5c2.2-2.7,5.4-4.3,8.9-4.5c2.6-0.3,5.3,0.1,7.7,1c3.9,1.5,5.8,4.5,6.8,8.4
	c0.6,2.9,0.9,5.9,0.8,9c0,6.5,0,13,0,19.5C80,75.7,79.8,75.9,79.1,75.9z"/>
</svg>
